<?xml version="1.0" encoding="UTF-8"?>
<svg version="1.1" xmlns="http://www.w3.org/2000/svg" width="512" height="512">
<path d="M0 0 C1.00083454 -0.00480972 1.00083454 -0.00480972 2.02188796 -0.0097166 C4.24963109 -0.01799422 6.47710379 -0.01210029 8.70485115 -0.00622082 C10.32140184 -0.00924253 11.9379511 -0.0131321 13.55449784 -0.01781338 C17.99074847 -0.02809964 22.42691835 -0.02590996 26.86317563 -0.02163279 C31.64991774 -0.01916671 36.43664034 -0.02817827 41.22337532 -0.03567028 C50.59883231 -0.04842258 59.97426067 -0.05021031 69.34972487 -0.04787002 C76.97009863 -0.04608729 84.59046369 -0.04783552 92.21083641 -0.05209446 C93.83742842 -0.05298724 93.83742842 -0.05298724 95.49688087 -0.05389806 C97.69980255 -0.05510981 99.90272423 -0.05632394 102.10564591 -0.05754044 C122.76686718 -0.06841803 143.42807214 -0.06625245 164.08929433 -0.06015559 C182.99091315 -0.05498624 201.89248044 -0.06624197 220.79408906 -0.08525381 C240.20232199 -0.10462558 259.61053054 -0.11288937 279.0187732 -0.10913056 C289.91499281 -0.10721751 300.81116856 -0.10971619 311.70738029 -0.1238451 C320.98342146 -0.13575143 330.25939175 -0.13717217 339.53543387 -0.12505493 C344.26766624 -0.11916101 348.99976894 -0.11808103 353.73199272 -0.13005733 C358.06595797 -0.14089822 362.399685 -0.13783415 366.73363902 -0.12379565 C368.29952828 -0.12114378 369.86543611 -0.12353065 371.43130718 -0.13153151 C389.52064446 -0.21752705 389.52064446 -0.21752705 396.38163948 5.05135059 C401.26070036 11.0159727 403.57120518 16.22725539 403.28007698 24.14900684 C402.44264646 31.5485978 400.01120365 35.99419195 394.36992073 40.84431934 C389.27378766 43.93107109 383.93786903 44.50466276 378.08359146 44.50895119 C377.08275692 44.5137609 377.08275692 44.5137609 376.0617035 44.51866779 C373.83396037 44.5269454 371.60648767 44.52105148 369.37874031 44.515172 C367.76218962 44.51819371 366.14564036 44.52208329 364.52909362 44.52676457 C360.09284299 44.53705082 355.65667311 44.53486115 351.22041583 44.53058398 C346.43367372 44.5281179 341.64695112 44.53712945 336.86021614 44.54462147 C327.48475915 44.55737377 318.10933079 44.55916149 308.73386659 44.5568212 C301.11349283 44.55503848 293.49312777 44.55678671 285.87275505 44.56104565 C284.24616304 44.56193843 284.24616304 44.56193843 282.58671059 44.56284925 C280.38378891 44.564061 278.18086723 44.56527513 275.97794555 44.56649163 C255.31672428 44.57736921 234.65551933 44.57520363 213.99429713 44.56910678 C195.09267831 44.56393743 176.19111102 44.57519316 157.2895024 44.594205 C137.88126947 44.61357677 118.47306093 44.62184056 99.06481826 44.61808175 C88.16859865 44.6161687 77.2724229 44.61866737 66.37621117 44.63279629 C57.10017001 44.64470262 47.82419971 44.64612336 38.54815759 44.63400612 C33.81592522 44.6281122 29.08382252 44.62703222 24.35159874 44.63900852 C20.01763349 44.64984941 15.68390646 44.64678533 11.34995244 44.63274684 C9.78406318 44.63009497 8.21815535 44.63248184 6.65228428 44.6404827 C-11.437053 44.72647824 -11.437053 44.72647824 -18.29804802 39.45760059 C-23.1771089 33.49297849 -25.48761372 28.28169579 -25.19648552 20.35994434 C-24.359055 12.96035339 -21.92761219 8.51475923 -16.28632927 3.66463184 C-11.1901962 0.5778801 -5.85427757 0.00428843 0 0 Z " fill="#323232" transform="translate(66.95820426940918,361.7455244064331)"/>
<path d="M0 0 C1.00083454 -0.00480972 1.00083454 -0.00480972 2.02188796 -0.0097166 C4.24963109 -0.01799422 6.47710379 -0.01210029 8.70485115 -0.00622082 C10.32140184 -0.00924253 11.9379511 -0.0131321 13.55449784 -0.01781338 C17.99074847 -0.02809964 22.42691835 -0.02590996 26.86317563 -0.02163279 C31.64991774 -0.01916671 36.43664034 -0.02817827 41.22337532 -0.03567028 C50.59883231 -0.04842258 59.97426067 -0.05021031 69.34972487 -0.04787002 C76.97009863 -0.04608729 84.59046369 -0.04783552 92.21083641 -0.05209446 C93.83742842 -0.05298724 93.83742842 -0.05298724 95.49688087 -0.05389806 C97.69980255 -0.05510981 99.90272423 -0.05632394 102.10564591 -0.05754044 C122.76686718 -0.06841803 143.42807214 -0.06625245 164.08929433 -0.06015559 C182.99091315 -0.05498624 201.89248044 -0.06624197 220.79408906 -0.08525381 C240.20232199 -0.10462558 259.61053054 -0.11288937 279.0187732 -0.10913056 C289.91499281 -0.10721751 300.81116856 -0.10971619 311.70738029 -0.1238451 C320.98342146 -0.13575143 330.25939175 -0.13717217 339.53543387 -0.12505493 C344.26766624 -0.11916101 348.99976894 -0.11808103 353.73199272 -0.13005733 C358.06595797 -0.14089822 362.399685 -0.13783415 366.73363902 -0.12379565 C368.29952828 -0.12114378 369.86543611 -0.12353065 371.43130718 -0.13153151 C389.52064446 -0.21752705 389.52064446 -0.21752705 396.38163948 5.05135059 C401.26070036 11.0159727 403.57120518 16.22725539 403.28007698 24.14900684 C402.44264646 31.5485978 400.01120365 35.99419195 394.36992073 40.84431934 C389.27378766 43.93107109 383.93786903 44.50466276 378.08359146 44.50895119 C377.08275692 44.5137609 377.08275692 44.5137609 376.0617035 44.51866779 C373.83396037 44.5269454 371.60648767 44.52105148 369.37874031 44.515172 C367.76218962 44.51819371 366.14564036 44.52208329 364.52909362 44.52676457 C360.09284299 44.53705082 355.65667311 44.53486115 351.22041583 44.53058398 C346.43367372 44.5281179 341.64695112 44.53712945 336.86021614 44.54462147 C327.48475915 44.55737377 318.10933079 44.55916149 308.73386659 44.5568212 C301.11349283 44.55503848 293.49312777 44.55678671 285.87275505 44.56104565 C284.24616304 44.56193843 284.24616304 44.56193843 282.58671059 44.56284925 C280.38378891 44.564061 278.18086723 44.56527513 275.97794555 44.56649163 C255.31672428 44.57736921 234.65551933 44.57520363 213.99429713 44.56910678 C195.09267831 44.56393743 176.19111102 44.57519316 157.2895024 44.594205 C137.88126947 44.61357677 118.47306093 44.62184056 99.06481826 44.61808175 C88.16859865 44.6161687 77.2724229 44.61866737 66.37621117 44.63279629 C57.10017001 44.64470262 47.82419971 44.64612336 38.54815759 44.63400612 C33.81592522 44.6281122 29.08382252 44.62703222 24.35159874 44.63900852 C20.01763349 44.64984941 15.68390646 44.64678533 11.34995244 44.63274684 C9.78406318 44.63009497 8.21815535 44.63248184 6.65228428 44.6404827 C-11.437053 44.72647824 -11.437053 44.72647824 -18.29804802 39.45760059 C-23.1771089 33.49297849 -25.48761372 28.28169579 -25.19648552 20.35994434 C-24.359055 12.96035339 -21.92761219 8.51475923 -16.28632927 3.66463184 C-11.1901962 0.5778801 -5.85427757 0.00428843 0 0 Z " fill="#323232" transform="translate(66.95820426940918,233.7455244064331)"/>
<path d="M0 0 C1.00083454 -0.00480972 1.00083454 -0.00480972 2.02188796 -0.0097166 C4.24963109 -0.01799422 6.47710379 -0.01210029 8.70485115 -0.00622082 C10.32140184 -0.00924253 11.9379511 -0.0131321 13.55449784 -0.01781338 C17.99074847 -0.02809964 22.42691835 -0.02590996 26.86317563 -0.02163279 C31.64991774 -0.01916671 36.43664034 -0.02817827 41.22337532 -0.03567028 C50.59883231 -0.04842258 59.97426067 -0.05021031 69.34972487 -0.04787002 C76.97009863 -0.04608729 84.59046369 -0.04783552 92.21083641 -0.05209446 C93.83742842 -0.05298724 93.83742842 -0.05298724 95.49688087 -0.05389806 C97.69980255 -0.05510981 99.90272423 -0.05632394 102.10564591 -0.05754044 C122.76686718 -0.06841803 143.42807214 -0.06625245 164.08929433 -0.06015559 C182.99091315 -0.05498624 201.89248044 -0.06624197 220.79408906 -0.08525381 C240.20232199 -0.10462558 259.61053054 -0.11288937 279.0187732 -0.10913056 C289.91499281 -0.10721751 300.81116856 -0.10971619 311.70738029 -0.1238451 C320.98342146 -0.13575143 330.25939175 -0.13717217 339.53543387 -0.12505493 C344.26766624 -0.11916101 348.99976894 -0.11808103 353.73199272 -0.13005733 C358.06595797 -0.14089822 362.399685 -0.13783415 366.73363902 -0.12379565 C368.29952828 -0.12114378 369.86543611 -0.12353065 371.43130718 -0.13153151 C389.52064446 -0.21752705 389.52064446 -0.21752705 396.38163948 5.05135059 C401.26070036 11.0159727 403.57120518 16.22725539 403.28007698 24.14900684 C402.44264646 31.5485978 400.01120365 35.99419195 394.36992073 40.84431934 C389.27378766 43.93107109 383.93786903 44.50466276 378.08359146 44.50895119 C377.08275692 44.5137609 377.08275692 44.5137609 376.0617035 44.51866779 C373.83396037 44.5269454 371.60648767 44.52105148 369.37874031 44.515172 C367.76218962 44.51819371 366.14564036 44.52208329 364.52909362 44.52676457 C360.09284299 44.53705082 355.65667311 44.53486115 351.22041583 44.53058398 C346.43367372 44.5281179 341.64695112 44.53712945 336.86021614 44.54462147 C327.48475915 44.55737377 318.10933079 44.55916149 308.73386659 44.5568212 C301.11349283 44.55503848 293.49312777 44.55678671 285.87275505 44.56104565 C284.24616304 44.56193843 284.24616304 44.56193843 282.58671059 44.56284925 C280.38378891 44.564061 278.18086723 44.56527513 275.97794555 44.56649163 C255.31672428 44.57736921 234.65551933 44.57520363 213.99429713 44.56910678 C195.09267831 44.56393743 176.19111102 44.57519316 157.2895024 44.594205 C137.88126947 44.61357677 118.47306093 44.62184056 99.06481826 44.61808175 C88.16859865 44.6161687 77.2724229 44.61866737 66.37621117 44.63279629 C57.10017001 44.64470262 47.82419971 44.64612336 38.54815759 44.63400612 C33.81592522 44.6281122 29.08382252 44.62703222 24.35159874 44.63900852 C20.01763349 44.64984941 15.68390646 44.64678533 11.34995244 44.63274684 C9.78406318 44.63009497 8.21815535 44.63248184 6.65228428 44.6404827 C-11.437053 44.72647824 -11.437053 44.72647824 -18.29804802 39.45760059 C-23.1771089 33.49297849 -25.48761372 28.28169579 -25.19648552 20.35994434 C-24.359055 12.96035339 -21.92761219 8.51475923 -16.28632927 3.66463184 C-11.1901962 0.5778801 -5.85427757 0.00428843 0 0 Z " fill="#323232" transform="translate(66.95820426940918,105.7455244064331)"/>
</svg>
