<?xml version="1.0" encoding="UTF-8"?>
<svg version="1.1" xmlns="http://www.w3.org/2000/svg" width="512" height="512">
<path d="M0 0 C7.50787839 3.81979778 11.14337488 8.19779506 14.5625 15.8125 C16.77000283 22.92401229 16.11465718 30.14010986 13.23973846 36.93169785 C9.49363865 43.36594835 3.80590052 48.34227826 -1.46777344 53.52392578 C-2.81938952 54.8738474 -4.16968177 56.22509561 -5.51875305 57.57756042 C-9.16831332 61.22883597 -12.8360209 64.86136783 -16.50736141 68.49072504 C-20.34715426 72.29290654 -24.16986356 76.11218659 -27.9944458 79.92965698 C-35.23198632 87.14857934 -42.48467925 94.35207572 -49.74299169 101.55010593 C-58.00872203 109.74867722 -66.25733893 117.96437531 -74.5045886 126.18153024 C-91.46330107 143.07759625 -108.44330732 159.95212598 -125.4375 176.8125 C-124.16612694 176.81396521 -124.16612694 176.81396521 -122.86906958 176.81546003 C-72.64893077 176.87371562 -22.42883529 176.94749995 27.79125002 177.04148628 C33.81949199 177.05275462 39.8477342 177.06389304 45.87597656 177.07495117 C47.07610522 177.07715486 48.27623387 177.07935854 49.51273006 177.081629 C68.95216385 177.1170139 88.39159759 177.14187131 107.83105165 177.16284702 C127.77357493 177.18459956 147.71605637 177.2176448 167.65854406 177.26120156 C179.96688286 177.28772765 192.27516952 177.30541598 204.58353549 177.31184604 C213.02063895 177.31709697 221.45767676 177.33330409 229.89474505 177.35816566 C234.76450893 177.37219067 239.63415525 177.3813477 244.50394058 177.37750816 C248.96274565 177.37409923 253.42129959 177.3844554 257.88005322 177.40573552 C259.49255851 177.41100601 261.10508986 177.41123558 262.71759492 177.40589563 C273.84168954 177.37281141 282.37218161 177.839482 290.796875 185.81640625 C296.45317188 192.21102506 297.27864067 199.00250344 297.0078125 207.37109375 C296.01853003 215.01633807 292.53629841 220.63309832 286.69921875 225.55859375 C278.21481854 230.53755622 269.88489397 230.24283949 260.33898926 230.21122742 C258.67391043 230.21666975 257.00883545 230.22342251 255.34376669 230.23136932 C250.77836363 230.24937936 246.21312336 230.24883943 241.64769316 230.24523985 C236.72069901 230.24461575 231.79375936 230.2612385 226.86679077 230.27575684 C218.33382259 230.29854505 209.80089524 230.31042834 201.26789856 230.31488609 C188.9306579 230.32134703 176.59349104 230.34428345 164.25628012 230.37122939 C144.23954869 230.4145014 124.22282037 230.4444658 104.20605469 230.46606445 C84.76267978 230.48707289 65.31933029 230.51434682 45.87597656 230.55004883 C44.67730613 230.55224765 43.47863569 230.55444648 42.24364191 230.55671193 C36.23021015 230.56778155 30.21677863 230.57897437 24.20334721 230.59022844 C-25.67691271 230.68341942 -75.55718704 230.75501468 -125.4375 230.8125 C-124.73512585 231.5093434 -124.03275169 232.20618679 -123.30909348 232.92414665 C-106.20746713 249.89248558 -89.12322643 266.87817629 -72.05700302 283.88212395 C-63.80344746 292.10476176 -55.54436623 300.3217015 -47.27197266 308.52539062 C-40.06048742 315.67701105 -32.85966567 322.83917008 -25.67136884 330.01410019 C-21.86599026 333.81166723 -18.05553751 337.60380289 -14.23226166 341.383358 C-10.63070268 344.94406506 -7.04361571 348.51874118 -3.46692848 352.10442543 C-2.15479816 353.41491079 -0.83755217 354.72029803 0.48524666 356.02001381 C8.67049478 364.06942615 15.21787208 370.80063857 16.0625 382.8125 C15.73859313 390.15824508 12.87030848 397.65213065 7.5625 402.8125 C1.5251546 407.1908228 -3.07294654 408.95288748 -10.5625 409.1875 C-11.61695313 409.23648437 -12.67140625 409.28546875 -13.7578125 409.3359375 C-22.81176782 408.04800755 -29.36757652 402.61893406 -35.59848022 396.28643799 C-36.73412365 395.16249449 -36.73412365 395.16249449 -37.89270937 394.01584506 C-40.40707504 391.52130033 -42.90333182 389.0094148 -45.39990234 386.49707031 C-47.20663949 384.69711352 -49.01443746 382.89822102 -50.82321167 381.10031128 C-55.21114883 376.73276315 -59.58728914 372.35369905 -63.95776932 367.96869043 C-67.51142757 364.40371165 -71.06997083 360.84367791 -74.6320076 357.28707123 C-75.14016428 356.77968072 -75.64832095 356.2722902 -76.17187632 355.74952422 C-77.20439493 354.71860433 -78.2369247 353.68769562 -79.26946552 352.65679798 C-88.93582713 343.00467146 -98.58684381 333.33731892 -108.23262759 323.66463408 C-116.50043653 315.37448165 -124.78127613 307.09753514 -133.07177734 298.83007812 C-142.71286463 289.2157768 -152.34575252 279.59338007 -161.96578562 269.95800853 C-162.99247563 268.92972586 -164.01917605 267.90145359 -165.04588699 266.87319183 C-165.55097056 266.36733689 -166.05605412 265.86148195 -166.57644325 265.34029807 C-170.12775918 261.78467403 -173.68482519 258.23486632 -177.24418259 254.68729401 C-182.03807479 249.90892707 -186.81845015 245.11742457 -191.59013748 240.31686783 C-193.34179655 238.55860537 -195.09770991 236.8045693 -196.85818481 235.05513382 C-199.26336452 232.66364825 -201.6525664 230.2572397 -204.03842163 227.84649658 C-204.73588355 227.16018827 -205.43334548 226.47387995 -206.15194261 225.76677442 C-212.31455741 219.47914412 -216.01048029 212.85660898 -216 203.875 C-216.02191406 202.77285156 -216.04382813 201.67070312 -216.06640625 200.53515625 C-214.53451442 191.46749839 -209.30584785 184.94334399 -202.91143799 178.65151978 C-202.16214232 177.89442416 -201.41284666 177.13732854 -200.64084506 176.35729063 C-198.14630033 173.84292496 -195.6344148 171.34666818 -193.12207031 168.85009766 C-191.32211352 167.04336051 -189.52322102 165.23556254 -187.72531128 163.42678833 C-183.35776315 159.03885117 -178.97869905 154.66271086 -174.59369043 150.29223068 C-171.02871165 146.73857243 -167.46867791 143.18002917 -163.91207123 139.6179924 C-163.15098546 138.85575738 -163.15098546 138.85575738 -162.37452422 138.07812368 C-161.34360433 137.04560507 -160.31269562 136.0130753 -159.28179798 134.98053448 C-149.62967146 125.31417287 -139.96231892 115.66315619 -130.28963408 106.01737241 C-121.99948165 97.74956347 -113.72253514 89.46872387 -105.45507812 81.17822266 C-95.8407768 71.53713537 -86.21838007 61.90424748 -76.58300853 52.28421438 C-75.55472586 51.25752437 -74.52645359 50.23082395 -73.49819183 49.20411301 C-72.99233689 48.69902944 -72.48648195 48.19394588 -71.96529807 47.67355675 C-68.40967403 44.12224082 -64.85986632 40.56517481 -61.31229401 37.00581741 C-56.53392707 32.21192521 -51.74242457 27.43154985 -46.94186783 22.65986252 C-45.18360537 20.90820345 -43.4295693 19.15229009 -41.68013382 17.39181519 C-39.28864825 14.98663548 -36.8822397 12.5974336 -34.47149658 10.21157837 C-33.78518827 9.51411645 -33.09887995 8.81665452 -32.39177442 8.09805739 C-23.39784537 -0.71704745 -12.31432068 -4.10477356 0 0 Z " fill="#DFDFDF" transform="translate(215.4375,52.1875)"/>
</svg>
