<?xml version="1.0" encoding="UTF-8"?>
<svg version="1.1" xmlns="http://www.w3.org/2000/svg" width="512" height="512">
<path d="M0 0 C5.34117264 3.05465058 8.43794007 7.55644982 10.3359375 13.3359375 C11.21984522 20.7874851 10.85467376 27.207416 6.3359375 33.3359375 C1.23344676 38.36687387 -4.55493926 42.58863042 -10.3515625 46.7734375 C-17.35406917 51.87874055 -24.28511294 57.06536855 -31.1640625 62.3359375 C-38.55016641 67.98987501 -45.99601567 73.55064567 -53.5 79.046875 C-59.44077683 83.40870782 -65.3115951 87.85648298 -71.1640625 92.3359375 C-78.55048042 97.98947145 -85.99600716 103.55063944 -93.5 109.046875 C-99.44077683 113.40870782 -105.3115951 117.85648298 -111.1640625 122.3359375 C-118.55048042 127.98947145 -125.99600716 133.55063944 -133.5 139.046875 C-139.44077683 143.40870782 -145.3115951 147.85648298 -151.1640625 152.3359375 C-158.55048042 157.98947145 -165.99600716 163.55063944 -173.5 169.046875 C-179.44077734 173.4087082 -185.31158167 177.85649947 -191.1640625 182.3359375 C-199.52813116 188.73741367 -207.96850016 195.02540603 -216.46484375 201.25 C-220.5549327 204.24730255 -224.61414567 207.28463968 -228.6640625 210.3359375 C-227.54430327 213.69521519 -226.92803648 214.14508506 -224.1484375 216.12890625 C-223.40271484 216.66837891 -222.65699219 217.20785156 -221.88867188 217.76367188 C-220.66374023 218.63475586 -220.66374023 218.63475586 -219.4140625 219.5234375 C-217.66808285 220.78611936 -215.92333478 222.05050555 -214.1796875 223.31640625 C-213.27025391 223.97560059 -212.36082031 224.63479492 -211.42382812 225.31396484 C-206.95369589 228.58905642 -202.56024959 231.96260535 -198.1640625 235.3359375 C-191.54527811 240.40333036 -184.88901301 245.41030485 -178.1640625 250.3359375 C-170.53666233 255.9225617 -163.00761685 261.62870088 -155.5 267.375 C-149.76503523 271.75658076 -143.98646687 276.07136708 -138.1640625 280.3359375 C-130.53666233 285.9225617 -123.00761685 291.62870088 -115.5 297.375 C-109.76503523 301.75658076 -103.98646687 306.07136708 -98.1640625 310.3359375 C-90.53666233 315.9225617 -83.00761685 321.62870088 -75.5 327.375 C-69.76503523 331.75658076 -63.98646687 336.07136708 -58.1640625 340.3359375 C-50.5425758 345.91823043 -43.01900839 351.61948538 -35.51757812 357.36181641 C-29.61152747 361.87453821 -23.65749513 366.31507008 -17.6640625 370.7109375 C-15.37031552 372.3989631 -13.07711287 374.08772465 -10.78417969 375.77685547 C-9.41165477 376.78617653 -8.03741289 377.79316867 -6.66113281 378.79736328 C8.73907843 390.05990829 8.73907843 390.05990829 10.3359375 398.3359375 C11.03266885 406.33494939 9.67959671 411.71391871 5.2734375 418.5234375 C1.07849609 423.2364289 -5.52988104 425.46413661 -11.7265625 425.8359375 C-20.84542761 424.67798637 -27.49763265 419.53872925 -34.5390625 413.9609375 C-36.39999432 412.51427672 -38.26199504 411.06899001 -40.125 409.625 C-41.0540918 408.9021582 -41.98318359 408.17931641 -42.94042969 407.43457031 C-46.96537802 404.33323866 -51.06008329 401.33143531 -55.1640625 398.3359375 C-62.7924655 392.75071421 -70.320541 387.04314897 -77.828125 381.296875 C-83.56308977 376.91529424 -89.34165813 372.60050792 -95.1640625 368.3359375 C-102.79146267 362.7493133 -110.32050815 357.04317412 -117.828125 351.296875 C-123.56308977 346.91529424 -129.34165813 342.60050792 -135.1640625 338.3359375 C-142.79146267 332.7493133 -150.32050815 327.04317412 -157.828125 321.296875 C-163.56308977 316.91529424 -169.34165813 312.60050792 -175.1640625 308.3359375 C-182.79146267 302.7493133 -190.32050815 297.04317412 -197.828125 291.296875 C-203.56309103 286.91529329 -209.34169425 282.60055886 -215.1640625 278.3359375 C-223.82398011 271.99201258 -232.36523713 265.49974561 -240.890625 258.9765625 C-244.72862239 256.04188945 -248.59394932 253.14872283 -252.4765625 250.2734375 C-254.20999772 248.96658022 -255.93969377 247.65473471 -257.6640625 246.3359375 C-258.41816406 245.76101563 -259.17226563 245.18609375 -259.94921875 244.59375 C-267.83303921 238.19827695 -273.02070708 229.38621033 -274.6640625 219.3359375 C-275.77408844 206.1252584 -273.98474269 194.57654364 -265.8046875 183.75 C-257.87584826 174.80835282 -247.39125771 168.11556244 -237.79296875 161.109375 C-232.52882986 157.25539949 -227.34281571 153.30355767 -222.1640625 149.3359375 C-214.77793825 143.68202638 -207.33210982 138.12122968 -199.828125 132.625 C-193.88734817 128.26316718 -188.0165299 123.81539202 -182.1640625 119.3359375 C-174.77764458 113.68240355 -167.33211784 108.12123556 -159.828125 102.625 C-153.88734817 98.26316718 -148.0165299 93.81539202 -142.1640625 89.3359375 C-134.77764458 83.68240355 -127.33211784 78.12123556 -119.828125 72.625 C-113.88734817 68.26316718 -108.0165299 63.81539202 -102.1640625 59.3359375 C-94.77764458 53.68240355 -87.33211784 48.12123556 -79.828125 42.625 C-73.88734545 38.26316518 -68.0166212 33.81527614 -62.1640625 29.3359375 C-53.08337242 22.38822785 -43.91634977 15.56828877 -34.68505859 8.82226562 C-32.8613129 7.48100399 -31.05082416 6.12449103 -29.24609375 4.7578125 C-28.29089844 4.04109375 -27.33570313 3.324375 -26.3515625 2.5859375 C-25.18173828 1.69648437 -25.18173828 1.69648437 -23.98828125 0.7890625 C-16.04484202 -4.17725581 -8.26610372 -3.58621731 0 0 Z " fill="#E0E0E0" transform="translate(352.6640625,44.6640625)"/>
</svg>
