<?xml version="1.0" encoding="UTF-8"?>
<!DOCTYPE svg PUBLIC "-//W3C//DTD SVG 1.1//EN" "http://www.w3.org/Graphics/SVG/1.1/DTD/svg11.dtd">
<svg xmlns="http://www.w3.org/2000/svg" version="1.1" width="512px" height="512px" style="shape-rendering:geometricPrecision; text-rendering:geometricPrecision; image-rendering:optimizeQuality; fill-rule:evenodd; clip-rule:evenodd" xmlns:xlink="http://www.w3.org/1999/xlink">
<g><path style="opacity:0.906" fill="#050101" d="M 243.5,-0.5 C 251.5,-0.5 259.5,-0.5 267.5,-0.5C 341.621,7.79891 393.455,46.1322 423,114.5C 438.239,154.517 438.239,194.517 423,234.5C 408.264,272.304 390.598,308.637 370,343.5C 335.217,401.424 297.717,457.424 257.5,511.5C 256.167,511.5 254.833,511.5 253.5,511.5C 203.768,445.548 158.935,376.215 119,303.5C 101.479,271.462 88.1452,237.796 79,202.5C 71.0371,132.952 94.5371,76.7851 149.5,34C 177.687,13.732 209.02,2.23196 243.5,-0.5 Z"/></g>
<g><path style="opacity:1" fill="#dd5b46" d="M 248.5,492.5 C 296.037,429.836 337.871,363.169 374,292.5C 386.033,268.398 395.7,243.398 403,217.5C 413.279,146.649 390.112,89.4823 333.5,46C 292.57,17.685 247.57,7.85171 198.5,16.5C 268.684,-5.056 329.85,9.944 382,61.5C 430.876,117.77 440.21,180.103 410,248.5C 389.43,294.316 365.763,338.316 339,380.5C 313.063,421.765 285.563,461.931 256.5,501C 255.551,501.617 254.718,501.451 254,500.5C 251.946,497.953 250.113,495.286 248.5,492.5 Z"/></g>
<g><path style="opacity:1" fill="#f6654e" d="M 248.5,492.5 C 198.506,425.232 154.006,354.232 115,279.5C 100.884,251.485 90.5508,222.152 84,191.5C 81.2451,121.166 109.412,67.3328 168.5,30C 178.136,24.6821 188.136,20.1821 198.5,16.5C 247.57,7.85171 292.57,17.685 333.5,46C 390.112,89.4823 413.279,146.649 403,217.5C 395.7,243.398 386.033,268.398 374,292.5C 337.871,363.169 296.037,429.836 248.5,492.5 Z"/></g>
<g><path style="opacity:0.761" fill="#000000" d="M 125.5,26.5 C 132.129,27.2171 133.129,30.0504 128.5,35C 125.971,37.0285 123.304,38.8619 120.5,40.5C 118.5,39.8333 117.167,38.5 116.5,36.5C 118.839,32.498 121.839,29.1647 125.5,26.5 Z"/></g>
<g><path style="opacity:0.82" fill="#000000" d="M 105.5,45.5 C 112.118,44.275 113.951,46.6084 111,52.5C 99.9364,64.9525 90.6031,78.6191 83,93.5C 77.6667,95.8333 75.6667,94.1667 77,88.5C 85.1778,73.181 94.6778,58.8476 105.5,45.5 Z"/></g>
<g><path style="opacity:1" fill="#0b0706" d="M 239.5,52.5 C 295.356,48.6753 337.856,70.342 367,117.5C 387.644,158.804 387.644,200.138 367,241.5C 338.415,288.212 296.581,309.712 241.5,306C 200.866,300.445 169.366,280.612 147,246.5C 127.448,213.061 123.114,177.728 134,140.5C 152.434,90.8836 187.601,61.5503 239.5,52.5 Z"/></g>
<g><path style="opacity:1" fill="#fdfdfd" d="M 242.5,58.5 C 305.082,56.6246 347.915,84.6246 371,142.5C 385.546,201.534 368.046,248.367 318.5,283C 269.618,309.267 222.951,305.933 178.5,273C 140.789,238.531 127.622,196.364 139,146.5C 155.96,96.3619 190.46,67.0286 242.5,58.5 Z"/></g>
<g><path style="opacity:1" fill="#080805" d="M 267.5,204.5 C 267.539,203.244 267.039,202.244 266,201.5C 265.501,207.157 265.334,212.824 265.5,218.5C 265.411,238.983 257.411,255.483 241.5,268C 231.333,269.833 227.167,265.667 229,255.5C 245.842,243.149 254.176,226.482 254,205.5C 248.234,227.796 234.401,235.629 212.5,229C 202.586,222.678 197.753,213.512 198,201.5C 181.348,191.168 178.015,177.501 188,160.5C 195.432,150.372 205.265,146.872 217.5,150C 227.205,152.179 236.872,154.179 246.5,156C 235.289,146.049 226.122,134.549 219,121.5C 216.666,105.33 222.833,93.8298 237.5,87C 245.972,85.416 253.805,86.916 261,91.5C 279.438,81.9798 293.105,86.6464 302,105.5C 303.492,110.411 303.826,115.411 303,120.5C 296.128,134.048 286.961,145.881 275.5,156C 284.743,154.017 294.076,152.017 303.5,150C 320.546,146.717 332.046,153.217 338,169.5C 341.026,184.108 336.026,194.775 323,201.5C 322.293,223.87 310.793,233.703 288.5,231C 282.865,229.353 278.365,226.186 275,221.5C 271.938,216.047 269.438,210.38 267.5,204.5 Z"/></g>
<g><path style="opacity:1" fill="#9fd21b" d="M 239.5,92.5 C 242.85,92.335 246.183,92.5017 249.5,93C 253.534,94.6785 257.201,96.8452 260.5,99.5C 275.49,88.0376 287.323,90.7043 296,107.5C 298.542,114.369 297.542,120.702 293,126.5C 283.725,139.276 272.891,150.61 260.5,160.5C 248.409,149.912 237.576,138.246 228,125.5C 221.624,110.923 225.457,99.9231 239.5,92.5 Z"/></g>
<g><path style="opacity:1" fill="#9fd21b" d="M 203.5,155.5 C 209.555,155.338 215.555,155.838 221.5,157C 233.213,160.012 244.88,163.178 256.5,166.5C 254.068,184.632 248.901,201.965 241,218.5C 229.42,228.31 218.42,227.643 208,216.5C 207.138,214.913 206.471,213.246 206,211.5C 205.667,206.833 205.333,202.167 205,197.5C 189.345,190.876 185.345,179.876 193,164.5C 196.103,160.886 199.603,157.886 203.5,155.5 Z"/></g>
<g><path style="opacity:1" fill="#9ed21b" d="M 305.5,155.5 C 325.931,155.363 334.431,165.363 331,185.5C 327.583,191.388 322.583,195.388 316,197.5C 317.665,220.169 307.498,228.669 285.5,223C 283,221.833 281.167,220 280,217.5C 272.505,201.183 267.339,184.183 264.5,166.5C 278.107,162.18 291.773,158.513 305.5,155.5 Z"/></g>
<g><path style="opacity:1" fill="#7a7a7a" d="M 267.5,204.5 C 266.833,209.167 266.167,213.833 265.5,218.5C 265.334,212.824 265.501,207.157 266,201.5C 267.039,202.244 267.539,203.244 267.5,204.5 Z"/></g>
<g><path style="opacity:1" fill="#87ac14" d="M 257.5,223.5 C 257.427,238.827 251.427,251.661 239.5,262C 235.889,263.254 234.389,262.088 235,258.5C 247.535,250.103 255.035,238.437 257.5,223.5 Z"/></g>
<g><path style="opacity:1" fill="#fff5f4" d="M 170.5,342.5 C 171.822,342.33 172.989,342.663 174,343.5C 175.667,346.167 177.333,348.833 179,351.5C 180.167,355.667 178.667,357.167 174.5,356C 171.739,353.148 169.739,349.815 168.5,346C 168.978,344.697 169.645,343.531 170.5,342.5 Z"/></g>
<g><path style="opacity:1" fill="#fff7f5" d="M 182.5,364.5 C 185.325,364.081 187.491,365.081 189,367.5C 194.084,376.003 199.417,384.336 205,392.5C 206.583,397.1 205.083,398.934 200.5,398C 194.333,388.5 188.167,379 182,369.5C 181.36,367.735 181.527,366.068 182.5,364.5 Z"/></g>
<g><path style="opacity:0.823" fill="#000000" d="M 372.5,365.5 C 377.068,365.083 378.568,367.083 377,371.5C 368.084,386.335 358.917,401.002 349.5,415.5C 343.61,417.112 341.777,415.112 344,409.5C 353.363,394.658 362.863,379.992 372.5,365.5 Z"/></g>
<g><path style="opacity:0.786" fill="#000000" d="M 334.5,424.5 C 339.675,423.507 341.509,425.507 340,430.5C 337.955,433.423 335.788,436.257 333.5,439C 330.186,440.165 328.186,438.998 327.5,435.5C 329.594,431.636 331.928,427.969 334.5,424.5 Z"/></g>
</svg>
