<?xml version="1.0" encoding="UTF-8"?>
<svg version="1.1" xmlns="http://www.w3.org/2000/svg" width="512" height="512">
<path d="M0 0 C1.44064486 0.87850134 2.86215295 1.790259 4.25 2.75 C5.1575 3.306875 6.065 3.86375 7 4.4375 C14.92234527 12.57991042 17.57676191 22.16752479 17.49050903 33.22888184 C17.49307231 34.45194999 17.49307231 34.45194999 17.49568737 35.69972658 C17.49896174 38.41123743 17.48801265 41.12249662 17.47705078 43.83398438 C17.47648622 45.78587844 17.4768041 47.73777293 17.47793579 49.68966675 C17.47850856 54.97418587 17.46676644 60.25861382 17.45278788 65.5431118 C17.44026795 71.07109487 17.43910902 76.59908013 17.43673706 82.1270752 C17.43052601 92.58870562 17.41412024 103.05029415 17.39403808 113.51190615 C17.37166744 125.42479748 17.36068271 137.33769084 17.35064721 149.25059795 C17.3297537 173.75042185 17.29458498 198.25020857 17.25 222.75 C18.29729719 222.74631283 19.34459438 222.74262566 20.42362785 222.73882675 C45.92169157 222.64997816 71.41973518 222.58427305 96.91792107 222.54275131 C109.24872214 222.52213734 121.57942087 222.49403886 133.91015625 222.44824219 C144.65922462 222.40833894 155.40821886 222.38255872 166.15735924 222.37364602 C171.84751128 222.36843723 177.53745126 222.35621863 183.22753525 222.32707977 C188.58731129 222.29985575 193.94678865 222.2915692 199.30662727 222.29756927 C201.26976331 222.29647217 203.23290971 222.28856014 205.19598579 222.2731781 C218.82093884 222.1716871 228.97716087 222.79842061 239.3359375 232.58984375 C246.3647207 240.52232765 246.89596804 249.75588426 246.42480469 259.83691406 C245.72788302 267.4641182 240.79810954 273.77620649 235.25 278.75 C228.15378535 283.58070018 222.50453908 284.90182225 213.98638916 284.87025452 C213.14584323 284.87110894 212.30529729 284.87196337 211.43928027 284.87284368 C208.61867829 284.8744927 205.79813558 284.86898653 202.97753906 284.86352539 C200.95727032 284.86324337 198.93700147 284.86340155 196.91673279 284.8639679 C191.42746635 284.86425528 185.93822168 284.85836798 180.4489603 284.85139394 C174.71408256 284.84515068 168.97920435 284.84455583 163.24432373 284.84336853 C152.38237495 284.84025809 141.52043621 284.83204855 130.65849185 284.82201904 C118.29346036 284.81084901 105.92842839 284.80534521 93.56339312 284.80032361 C68.12558984 284.78986572 42.68779548 284.77227181 17.25 284.75 C17.25368717 285.77060674 17.25737434 286.79121347 17.26117325 287.84274769 C17.35004796 312.69858078 17.41573932 337.55439322 17.45724869 362.41035175 C17.47785686 374.43060777 17.5059442 386.4507587 17.55175781 398.47094727 C17.59167887 408.95011075 17.6174455 419.42919811 17.62635398 429.90843552 C17.63155976 435.45498117 17.6437591 441.00130907 17.67292023 446.54778481 C17.70017247 451.77377951 17.70842516 456.99946779 17.70243073 462.22552681 C17.70352658 464.13825397 17.71142172 466.05099191 17.7268219 467.96365738 C17.82283004 480.50832948 17.73967184 492.38281534 8.40234375 501.95703125 C0.30028319 508.70629767 -7.74011357 510.8269111 -18.04296875 510.19921875 C-26.79091582 509.13914087 -32.71501287 505.03131313 -38.75 498.75 C-43.76979754 492.27710318 -45.0516918 486.43069167 -44.99050903 478.35977173 C-44.99221788 477.5297676 -44.99392673 476.69976348 -44.99568737 475.84460771 C-44.99897389 473.07160946 -44.98799238 470.29885476 -44.97705078 467.52587891 C-44.97648649 465.53487148 -44.97680358 463.54386363 -44.97793579 461.55285645 C-44.97850959 456.15252103 -44.9667508 450.75227447 -44.95278788 445.35195971 C-44.94028511 439.70651735 -44.93911037 434.06107296 -44.93673706 428.4156189 C-44.93052097 417.72726014 -44.91410837 407.0389423 -44.89403808 396.35060155 C-44.87168314 384.18141308 -44.86068666 372.01222266 -44.85064721 359.84301877 C-44.82974228 334.81198983 -44.79456375 309.78099721 -44.75 284.75 C-45.75606733 284.75368717 -46.76213467 284.75737434 -47.79868889 284.76117325 C-72.29532705 284.85003015 -96.79194427 284.91573088 -121.28870964 284.95724869 C-133.13523975 284.97786082 -144.98166329 285.00595575 -156.828125 285.05175781 C-167.1552917 285.09166673 -177.48238121 285.11744262 -187.80962288 285.12635398 C-193.27621335 285.13156182 -198.74258303 285.14377428 -204.20910263 285.17292023 C-209.35876327 285.20015325 -214.50811301 285.20842901 -219.65783882 285.20243073 C-221.54357279 285.20352743 -223.42931759 285.21143411 -225.31498909 285.2268219 C-238.16540174 285.32650597 -248.27063363 284.80181014 -258.0625 275.54296875 C-265.30924177 267.84330562 -266.31975973 259.78031567 -266.05859375 249.66796875 C-265.37383863 240.97417912 -261.18900039 234.52246324 -254.75 228.75 C-247.74005229 223.97802546 -242.21466102 222.59723716 -233.7901001 222.62974548 C-232.98222258 222.62889106 -232.17434507 222.62803663 -231.34198642 222.62715632 C-228.63193982 222.62550775 -225.92195497 222.63101273 -223.21191406 222.63647461 C-221.27046205 222.63675664 -219.32900993 222.63659843 -217.38755798 222.6360321 C-212.11316036 222.63574476 -206.83878539 222.64163145 -201.56439304 222.64860606 C-196.05373308 222.65484995 -190.54307262 222.65544422 -185.03240967 222.65663147 C-174.5954523 222.65974172 -164.15850538 222.66795101 -153.72155261 222.67798096 C-141.84018792 222.68915157 -129.95882273 222.69465494 -118.07745409 222.69967639 C-93.63496359 222.71013386 -69.19248238 222.72772741 -44.75 222.75 C-44.75515373 222.17307435 -44.76030746 221.5961487 -44.76561737 221.00174046 C-45.12094254 181.15459761 -45.4416504 141.30729254 -45.72348022 101.45956421 C-45.74837466 97.97735097 -45.77403974 94.49514452 -45.80004883 91.01293945 C-45.88015933 80.21331329 -45.94718924 69.4138554 -45.98217773 58.61398315 C-45.99241794 55.60000403 -46.00974062 52.58619885 -46.03344727 49.57229614 C-46.06530523 45.48172414 -46.07325041 41.39147426 -46.078125 37.30078125 C-46.09658478 35.57822113 -46.09658478 35.57822113 -46.11541748 33.82086182 C-46.08594959 23.25151149 -43.89442483 13.82026822 -36.75 5.75 C-26.58840593 -2.6194258 -12.28556255 -6.02233458 0 0 Z " fill="#323232" transform="translate(265.75,2.25)"/>
</svg>
