<?xml version="1.0" encoding="UTF-8"?>
<svg version="1.1" xmlns="http://www.w3.org/2000/svg" width="512" height="512">
<path d="M0 0 C4.94458536 5.23544332 5.55429974 10.07642858 5.41796875 16.9296875 C5.41372391 17.74245148 5.40947906 18.55521545 5.40510559 19.39260864 C5.38840804 21.97041959 5.35077362 24.5474282 5.3125 27.125 C5.29744158 28.88019699 5.2837552 30.63540631 5.27148438 32.390625 C5.23853392 36.67738913 5.18681453 40.96355886 5.125 45.25 C6.7797937 45.42958252 6.7797937 45.42958252 8.46801758 45.61279297 C56.31814565 50.93334486 102.96868135 72.65922424 134.125 110.25 C134.88296875 111.12011719 135.6409375 111.99023438 136.421875 112.88671875 C160.88525226 141.33869013 180.33593509 181.11489704 180.125 219.25 C181.60709961 219.22643433 181.60709961 219.22643433 183.11914062 219.20239258 C186.81664747 219.14772147 190.51411924 219.11351608 194.21191406 219.08520508 C195.80637641 219.07020255 197.40079808 219.04979379 198.99511719 219.02368164 C201.29893077 218.98691866 203.6021946 218.97018845 205.90625 218.95703125 C206.60866821 218.94154739 207.31108643 218.92606354 208.03479004 218.91011047 C213.62220031 218.90824889 219.41305978 219.80142177 223.69421387 223.66682434 C227.8662127 228.49403617 228.48809845 232.52894609 228.3984375 238.6796875 C227.95129857 242.88279344 226.74397692 244.89233729 224.125 248.25 C218.76679698 251.98131344 215.01186315 252.81773478 208.56640625 252.640625 C207.77725327 252.63496521 206.98810028 252.62930542 206.17503357 252.62347412 C203.67854626 252.60125686 201.18354625 252.55109219 198.6875 252.5 C196.98504691 252.47991588 195.28257111 252.46166847 193.58007812 252.4453125 C189.42782086 252.40144072 185.27666172 252.33251908 181.125 252.25 C180.98747314 253.9374231 180.98747314 253.9374231 180.84716797 255.65893555 C179.24226981 274.66689551 174.83479366 293.7657974 167.125 311.25 C166.58335205 312.47928223 166.58335205 312.47928223 166.03076172 313.73339844 C157.12514901 333.66239974 145.89788926 351.04599415 131.078125 367.109375 C129.49597392 368.84341258 128.01553119 370.59699382 126.5625 372.4375 C123.38119031 376.10824195 119.83539348 379.12708548 116.125 382.25 C115.2484375 383.01441406 114.371875 383.77882813 113.46875 384.56640625 C82.56891504 411.1053774 45.25184967 424.89532983 5.125 429.25 C5.14594727 430.33418213 5.16689453 431.41836426 5.18847656 432.53540039 C5.26121102 436.58132574 5.30692043 440.62719399 5.34472656 444.67358398 C5.36476622 446.42042784 5.39200587 448.16720525 5.42675781 449.91381836 C5.47561582 452.43359832 5.49804486 454.95248685 5.515625 457.47265625 C5.53627014 458.24585709 5.55691528 459.01905792 5.57818604 459.81568909 C5.58047531 465.4246851 4.34690319 468.63530248 1.125 473.25 C-3.86324796 477.22023818 -7.95295937 477.8932003 -14.2890625 477.6328125 C-19.55259932 476.85361823 -22.07923274 474.30385393 -25.1875 470.1875 C-27.90277518 465.46090987 -28.00917675 461.60836802 -27.97265625 456.30078125 C-27.97053383 455.14185616 -27.97053383 455.14185616 -27.96836853 453.95951843 C-27.96277466 451.49380611 -27.95022333 449.02818485 -27.9375 446.5625 C-27.93248421 444.88997527 -27.92792144 443.21744912 -27.92382812 441.54492188 C-27.91280724 437.44657954 -27.89554684 433.34830521 -27.875 429.25 C-28.7254187 429.15295776 -28.7254187 429.15295776 -29.59301758 429.05395508 C-80.40307491 423.09825362 -128.21496666 399.73666933 -160.5625 359.24609375 C-184.31480642 328.47241297 -200.119377 293.34904353 -202.875 254.25 C-203.96441895 254.26571045 -205.05383789 254.2814209 -206.17626953 254.29760742 C-210.23527575 254.35208978 -214.2942499 254.38641639 -218.35351562 254.41479492 C-220.10715173 254.42983995 -221.86075047 254.45028104 -223.61425781 254.47631836 C-226.14137009 254.51289121 -228.66798296 254.5297692 -231.1953125 254.54296875 C-232.36285568 254.56619453 -232.36285568 254.56619453 -233.5539856 254.58988953 C-239.07591238 254.59157966 -243.32983325 253.625892 -247.51953125 249.71484375 C-251.92744016 243.95065518 -252.47234987 240.42926048 -251.875 233.25 C-250.08272052 227.97273265 -247.29915494 225.41011067 -242.875 222.25 C-238.8417458 220.95204205 -234.80391191 221.12411097 -230.609375 221.15234375 C-229.81597717 221.1537587 -229.02257935 221.15517365 -228.20513916 221.15663147 C-225.67838728 221.16221585 -223.15172496 221.17476546 -220.625 221.1875 C-218.90885545 221.19251702 -217.19270951 221.19707957 -215.4765625 221.20117188 C-211.27600731 221.21218016 -207.07551883 221.22943404 -202.875 221.25 C-202.82746582 220.43917969 -202.77993164 219.62835938 -202.73095703 218.79296875 C-202.24305494 211.45628782 -201.35885356 204.42227426 -199.75 197.25 C-199.53118164 196.26870117 -199.31236328 195.28740234 -199.08691406 194.27636719 C-190.65780759 157.8593538 -172.54668901 127.13365716 -146.875 100.25 C-145.97201172 99.26773438 -145.97201172 99.26773438 -145.05078125 98.265625 C-130.5254746 82.89880184 -110.96965321 70.97268222 -91.875 62.25 C-90.73933594 61.71890625 -89.60367188 61.1878125 -88.43359375 60.640625 C-69.21193972 51.99867626 -48.84595227 47.06883807 -27.875 45.25 C-27.89856567 43.71460571 -27.89856567 43.71460571 -27.92260742 42.14819336 C-27.97718684 38.32584601 -28.01145119 34.50353266 -28.03979492 30.6809082 C-28.05481806 29.03110956 -28.0752426 27.38135042 -28.10131836 25.73168945 C-28.13798899 23.35097464 -28.15479103 20.97079092 -28.16796875 18.58984375 C-28.18345261 17.86039047 -28.19893646 17.13093719 -28.21488953 16.37937927 C-28.21699422 9.87562993 -26.79622535 5.21488956 -22.125 0.4375 C-14.603693 -4.62491817 -7.66192745 -4.66378193 0 0 Z M-87.875 97.25 C-88.92945313 97.81460938 -89.98390625 98.37921875 -91.0703125 98.9609375 C-102.8304129 105.50114999 -113.11847053 114.03368106 -122.875 123.25 C-123.62265625 123.94480469 -124.3703125 124.63960937 -125.140625 125.35546875 C-150.55852103 149.75131651 -164.75628948 183.90973855 -169.875 218.25 C-169.875 219.24 -169.875 220.23 -169.875 221.25 C-168.39290039 221.26401855 -168.39290039 221.26401855 -166.88085938 221.27832031 C-163.18282499 221.31846936 -159.48560095 221.38429394 -155.78808594 221.45751953 C-154.19379153 221.48558582 -152.59936168 221.50687113 -151.00488281 221.52099609 C-134.26419972 221.67813642 -134.26419972 221.67813642 -127.875 226.25 C-124.94238959 229.60451899 -123.99668839 233.39818126 -123.375 237.75 C-123.99640259 242.09981813 -125.05453701 245.82161767 -127.875 249.25 C-133.15624616 252.8215475 -136.90317843 253.84874409 -143.21484375 253.859375 C-143.98180069 253.87591125 -144.74875763 253.89244751 -145.53895569 253.90948486 C-147.96355432 253.95766542 -150.38752727 253.97926756 -152.8125 254 C-154.46682785 254.02818496 -156.12112693 254.0581159 -157.77539062 254.08984375 C-161.80854214 254.16341533 -165.84135243 254.21317173 -169.875 254.25 C-165.57540441 286.2642781 -154.43188269 315.77592932 -132.875 340.25 C-132.11058594 341.12398438 -131.34617188 341.99796875 -130.55859375 342.8984375 C-103.10215714 373.83919348 -68.37269734 390.20630027 -27.875 396.25 C-27.86098145 394.76790039 -27.86098145 394.76790039 -27.84667969 393.25585938 C-27.80653064 389.55782499 -27.74070606 385.86060095 -27.66748047 382.16308594 C-27.63941418 380.56879153 -27.61812887 378.97436168 -27.60400391 377.37988281 C-27.42964308 358.80464308 -27.42964308 358.80464308 -20.375 351.75 C-15.19119042 349.52836732 -10.42976603 349.50326876 -4.875 350.25 C0.24280237 352.58443617 2.03361375 355.1257151 4.125 360.25 C4.5612083 363.07221894 4.61262514 365.85855007 4.63671875 368.7109375 C4.65466995 369.50150543 4.67262115 370.29207336 4.69111633 371.1065979 C4.74496706 373.61267891 4.77903281 376.11857227 4.8125 378.625 C4.84569548 380.33205722 4.88018719 382.03908976 4.91601562 383.74609375 C5.00067852 387.91392653 5.06760907 392.0817061 5.125 396.25 C24.76248468 393.49630348 42.25631267 388.98026512 60.125 380.25 C61.87103516 379.39921875 61.87103516 379.39921875 63.65234375 378.53125 C101.00641681 359.33352033 128.55933982 325.02472888 141.54199219 285.38427734 C144.70568148 275.08136328 148.125 263.11887982 148.125 252.25 C147.00528809 252.2406543 145.88557617 252.23130859 144.73193359 252.22167969 C140.56063684 252.18167839 136.39006978 252.11589195 132.21923828 252.04248047 C130.41725061 252.01432947 128.61514081 251.99308578 126.81298828 251.97900391 C124.21583802 251.95749245 121.62014705 251.91080243 119.0234375 251.859375 C118.2232016 251.85814636 117.4229657 251.85691772 116.59848022 251.85565186 C111.32909217 251.71899492 108.33562532 250.6863591 104.125 247.25 C100.7909505 243.57104883 100.23596236 240.74799182 99.875 235.875 C100.1468763 231.93279365 101.21912282 229.66469662 103.125 226.25 C103.125 225.59 103.125 224.93 103.125 224.25 C109.02998262 221.07039398 114.48007877 219.94400989 121.1484375 219.8359375 C122.26770126 219.80688828 122.26770126 219.80688828 123.40957642 219.7772522 C125.77293777 219.71787935 128.13634897 219.6712422 130.5 219.625 C132.11069732 219.58678116 133.72137506 219.5477272 135.33203125 219.5078125 C139.26286016 219.41221324 143.19378463 219.328028 147.125 219.25 C146.67474448 211.94981577 145.9022873 205.04971486 143.9375 198 C143.71537842 197.18917969 143.49325684 196.37835938 143.2644043 195.54296875 C135.64148012 168.43452466 121.83883793 146.07313959 103.125 125.25 C102.52300781 124.57453125 101.92101562 123.8990625 101.30078125 123.203125 C76.90755964 97.39669407 40.00678252 81.690018 5.125 78.25 C5.11098145 79.83083374 5.11098145 79.83083374 5.09667969 81.44360352 C5.05660911 85.3782679 4.99080448 89.31216434 4.91748047 93.24633789 C4.88936929 94.94447922 4.86810598 96.64274901 4.85400391 98.34106445 C4.83243648 100.79184257 4.78571994 103.24109236 4.734375 105.69140625 C4.73314636 106.44273331 4.73191772 107.19406036 4.73065186 107.96815491 C4.58043998 113.45460904 3.23216539 116.70911769 0.125 121.25 C-4.37697539 124.86488664 -8.41594872 124.76101384 -13.99609375 124.58984375 C-18.01226835 124.11574987 -20.01252338 123.11247662 -22.875 120.25 C-28.22727253 112.47929321 -27.54461336 103.82434355 -27.625 94.75 C-27.6531948 93.14840568 -27.68312708 91.54684095 -27.71484375 89.9453125 C-27.78829515 86.0469284 -27.838122 82.1488946 -27.875 78.25 C-48.33786332 78.25 -70.26879764 87.55425943 -87.875 97.25 Z " fill="#323232" transform="translate(267.875,18.75)"/>
<path d="M0 0 C9.12397283 9.67072776 13.24606488 20.56544381 13.1484375 33.7734375 C13.14106567 34.95860962 13.14106567 34.95860962 13.13354492 36.16772461 C13.01357868 42.15311724 12.30574386 47.38886948 9.8359375 52.8984375 C9.50722656 53.63964844 9.17851562 54.38085938 8.83984375 55.14453125 C3.7519446 65.30272435 -3.99960845 72.94016723 -14.1640625 77.8984375 C-14.9478125 78.3109375 -15.7315625 78.7234375 -16.5390625 79.1484375 C-26.96640076 83.84073972 -40.94050045 83.57787519 -51.7890625 80.3359375 C-65.36630447 74.89738077 -75.05271199 64.83712536 -81.16796875 51.75 C-85.60382341 40.22106373 -85.16586447 26.86441347 -80.85546875 15.42578125 C-74.87210552 2.23942439 -65.74114482 -6.70980031 -52.1640625 -12.1015625 C-48.4765625 -13.4140625 -48.4765625 -13.4140625 -45.1640625 -14.1015625 C-44.53886719 -14.23433594 -43.91367188 -14.36710938 -43.26953125 -14.50390625 C-26.71138995 -17.23799637 -11.70655924 -11.36846367 0 0 Z " fill="#323232" transform="translate(292.1640625,222.1015625)"/>
</svg>
