<?xml version="1.0" encoding="UTF-8"?>
<svg version="1.1" xmlns="http://www.w3.org/2000/svg" width="512" height="512">
<path d="M0 0 C1.17580644 -0.00352835 1.17580644 -0.00352835 2.37536654 -0.00712797 C5.02393686 -0.01382908 7.67245824 -0.01335941 10.32103634 -0.01294994 C12.23040671 -0.01624788 14.13977638 -0.0199733 16.04914516 -0.02409142 C21.31339227 -0.03412761 26.57762798 -0.03783082 31.8418833 -0.04048073 C37.5128364 -0.04437903 43.18378043 -0.05395773 48.85472775 -0.0626936 C62.55924293 -0.0824721 76.26375887 -0.09252626 89.96828476 -0.10142139 C96.41886611 -0.10580227 102.86944665 -0.11116962 109.32002735 -0.11641026 C130.75830511 -0.1334244 152.19658153 -0.1479438 173.63486481 -0.155159 C175.02158262 -0.15563375 176.40830044 -0.15610964 177.79501825 -0.15658666 C178.48270829 -0.15682303 179.17039833 -0.15705941 179.87892746 -0.15730295 C183.36312469 -0.15850415 186.84732191 -0.1597196 190.33151913 -0.16094494 C191.02296989 -0.16118509 191.71442065 -0.16142524 192.42682446 -0.16167267 C214.84174244 -0.16956435 237.25660749 -0.1929927 259.67150236 -0.22550088 C283.36839421 -0.25980559 307.0652457 -0.27950964 330.76216453 -0.28280324 C343.68008222 -0.28496978 356.59792212 -0.29373948 369.51581669 -0.31926441 C380.51678324 -0.3409511 391.51765312 -0.34903183 402.51863862 -0.33929763 C408.13198752 -0.33474699 413.74513687 -0.33668371 419.35845852 -0.35605907 C424.49883422 -0.37364878 429.63886418 -0.37272692 434.77924334 -0.35716178 C436.63733156 -0.35477934 438.49544346 -0.35914214 440.35349543 -0.37099043 C453.01546852 -0.44672095 463.13885736 0.27709705 472.72482967 9.34125233 C479.97157144 17.04091546 480.98208941 25.1039054 480.72092342 35.21625233 C480.03616831 43.91004196 475.85133006 50.36175784 469.41232967 56.13422108 C462.49985922 60.83983863 457.00982356 62.2853032 448.70161152 62.26844215 C447.91658672 62.27079438 447.13156191 62.27314661 446.32274848 62.27557012 C443.6762747 62.2822592 441.02985002 62.28180193 438.38336849 62.2813921 C436.47313507 62.28469078 434.56290234 62.28841635 432.6526705 62.29253358 C427.39068274 62.30256119 422.12870639 62.30627159 416.86671042 62.30892289 C411.19645658 62.31282366 405.52621178 62.32240213 399.85596371 62.33113575 C386.15631563 62.35090618 372.4566668 62.36096693 358.75700802 62.36986354 C352.3079231 62.37424534 345.85883901 62.37961241 339.40975475 62.38485241 C317.97572562 62.40186497 296.54169781 62.4163846 275.10766315 62.42360115 C273.72148587 62.42407591 272.33530858 62.4245518 270.94913129 62.42502881 C270.26171376 62.42526519 269.57429624 62.42550156 268.86604788 62.4257451 C265.3832655 62.4269463 261.90048313 62.42816175 258.41770077 62.42938709 C257.38094896 62.42974732 257.38094896 62.42974732 256.32325266 62.43011482 C233.91501773 62.43800737 211.50683573 62.46143835 189.09862391 62.49394304 C165.40635298 62.52824759 141.7141224 62.54795173 118.02182448 62.55124539 C105.10727514 62.55341184 92.19280361 62.56218036 79.2782774 62.58770657 C68.28099486 62.60939286 57.28380903 62.61747413 46.28650753 62.60773978 C40.67517692 62.60318917 35.06404593 62.60512576 29.45274258 62.62450123 C24.31425716 62.64209092 19.17611761 62.6411691 14.03762873 62.62560394 C12.18024334 62.62322151 10.32283426 62.62758423 8.46548514 62.63943259 C-3.41560489 62.71052009 -13.91919377 62.37117088 -23.05642033 53.83734608 C-30.0592208 46.04851698 -32.08130801 38.01397404 -31.89626408 27.67328358 C-31.13716737 18.96769356 -27.25066402 11.79147987 -20.58767033 6.13422108 C-13.7847082 1.9780041 -7.95658362 -0.01608961 0 0 Z " fill="#323232" transform="translate(31.58767032623291,224.86577892303467)"/>
</svg>
