<?xml version="1.0" encoding="UTF-8"?>
<svg version="1.1" xmlns="http://www.w3.org/2000/svg" width="512" height="512">
<path d="M0 0 C33.91488019 31.02968177 55.74376145 73.48145955 59.02514648 119.63476562 C60.91796109 165.62979446 49.26396761 207.35091827 22.02514648 244.63476562 C21.48873535 245.37162598 20.95232422 246.10848633 20.3996582 246.86767578 C16.89848462 251.66700324 13.36655645 256.4429761 9.82348633 261.21142578 C6.87995875 265.17795507 3.95330349 269.15688422 1.02514648 273.13476562 C-0.14143687 274.71816034 -1.3081036 276.30149364 -2.47485352 277.88476562 C-3.05235352 278.66851562 -3.62985352 279.45226562 -4.22485352 280.25976562 C-9.47485352 287.38476562 -9.47485352 287.38476562 -11.22509766 289.76000977 C-12.39106158 291.34244747 -13.55691455 292.92496694 -14.72265625 294.50756836 C-17.64916795 298.48028449 -20.57762886 302.45153556 -23.51000977 306.41992188 C-29.20449951 314.1301602 -34.87368294 321.85640151 -40.47485352 329.63476562 C-47.81509573 339.82818428 -55.2793971 349.92877853 -62.74536133 360.03027344 C-64.51012927 362.41870316 -66.27404718 364.80775665 -68.03735352 367.19726562 C-68.61445068 367.9791626 -69.19154785 368.76105957 -69.78613281 369.56665039 C-73.24404044 374.26018368 -76.67009763 378.97511239 -80.0715332 383.7097168 C-82.69499055 387.3593907 -85.33350077 390.99803265 -87.97485352 394.63476562 C-88.43907715 395.27768555 -88.90330078 395.92060547 -89.3815918 396.58300781 C-96.5878199 406.5134461 -103.32754425 413.91372968 -115.41235352 417.32226562 C-125.10406736 418.50418195 -133.92307124 416.73404615 -142.06469727 411.16601562 C-149.6336007 405.09851022 -154.6958781 396.81388817 -160.0534668 388.85351562 C-163.98611154 383.02098215 -168.11929861 377.45683244 -172.45922852 371.91992188 C-175.89545752 367.48849342 -179.0825467 362.88124841 -182.29882812 358.28930664 C-186.02164756 352.97599524 -189.79411143 347.70148266 -193.59985352 342.44726562 C-197.81112233 336.63129087 -202.00477945 330.8037798 -206.17114258 324.95556641 C-209.54229654 320.22865165 -212.94501301 315.52495122 -216.34985352 310.82226562 C-220.59728333 304.9534516 -224.80725104 299.06052155 -228.97485352 293.13476562 C-235.75583763 283.49551461 -242.66433111 273.94959234 -249.58813477 264.41259766 C-252.8376038 259.93667148 -256.07352577 255.45141661 -259.2980957 250.95751953 C-261.01229 248.58290618 -262.74707455 246.22423956 -264.48266602 243.86523438 C-293.40545979 204.12817622 -306.71285097 156.46761821 -299.38305664 107.49609375 C-291.36491407 58.92396786 -265.09480651 16.15956874 -225.16186523 -12.67431641 C-200.05804834 -30.48796867 -170.75662142 -42.40248921 -139.97485352 -45.36523438 C-138.88172852 -45.47480469 -137.78860352 -45.584375 -136.66235352 -45.69726562 C-86.60148939 -50.12481847 -37.3488176 -33.47263382 0 0 Z " fill="#1975D1" transform="translate(376.974853515625,71.365234375)"/>
<path d="M0 0 C33.91488019 31.02968177 55.74376145 73.48145955 59.02514648 119.63476562 C60.91796109 165.62979446 49.26396761 207.35091827 22.02514648 244.63476562 C21.48873535 245.37162598 20.95232422 246.10848633 20.3996582 246.86767578 C16.89848462 251.66700324 13.36655645 256.4429761 9.82348633 261.21142578 C6.87995875 265.17795507 3.95330349 269.15688422 1.02514648 273.13476562 C-0.14143687 274.71816034 -1.3081036 276.30149364 -2.47485352 277.88476562 C-3.05235352 278.66851562 -3.62985352 279.45226562 -4.22485352 280.25976562 C-9.47485352 287.38476562 -9.47485352 287.38476562 -11.22509766 289.76000977 C-12.39106158 291.34244747 -13.55691455 292.92496694 -14.72265625 294.50756836 C-17.64916795 298.48028449 -20.57762886 302.45153556 -23.51000977 306.41992188 C-29.20449951 314.1301602 -34.87368294 321.85640151 -40.47485352 329.63476562 C-47.81509573 339.82818428 -55.2793971 349.92877853 -62.74536133 360.03027344 C-64.51012927 362.41870316 -66.27404718 364.80775665 -68.03735352 367.19726562 C-68.61445068 367.9791626 -69.19154785 368.76105957 -69.78613281 369.56665039 C-73.24404044 374.26018368 -76.67009763 378.97511239 -80.0715332 383.7097168 C-82.69499055 387.3593907 -85.33350077 390.99803265 -87.97485352 394.63476562 C-88.43907715 395.27768555 -88.90330078 395.92060547 -89.3815918 396.58300781 C-96.5878199 406.5134461 -103.32754425 413.91372968 -115.41235352 417.32226562 C-125.10406736 418.50418195 -133.92307124 416.73404615 -142.06469727 411.16601562 C-149.6336007 405.09851022 -154.6958781 396.81388817 -160.0534668 388.85351562 C-163.98611154 383.02098215 -168.11929861 377.45683244 -172.45922852 371.91992188 C-175.89545752 367.48849342 -179.0825467 362.88124841 -182.29882812 358.28930664 C-186.02164756 352.97599524 -189.79411143 347.70148266 -193.59985352 342.44726562 C-197.81112233 336.63129087 -202.00477945 330.8037798 -206.17114258 324.95556641 C-209.54229654 320.22865165 -212.94501301 315.52495122 -216.34985352 310.82226562 C-220.59728333 304.9534516 -224.80725104 299.06052155 -228.97485352 293.13476562 C-235.75583763 283.49551461 -242.66433111 273.94959234 -249.58813477 264.41259766 C-252.8376038 259.93667148 -256.07352577 255.45141661 -259.2980957 250.95751953 C-261.01229 248.58290618 -262.74707455 246.22423956 -264.48266602 243.86523438 C-293.40545979 204.12817622 -306.71285097 156.46761821 -299.38305664 107.49609375 C-291.36491407 58.92396786 -265.09480651 16.15956874 -225.16186523 -12.67431641 C-200.05804834 -30.48796867 -170.75662142 -42.40248921 -139.97485352 -45.36523438 C-138.88172852 -45.47480469 -137.78860352 -45.584375 -136.66235352 -45.69726562 C-86.60148939 -50.12481847 -37.3488176 -33.47263382 0 0 Z M-229.97485352 32.63476562 C-233.93270988 37.08490567 -237.51265212 41.79308281 -240.97485352 46.63476562 C-241.36624512 47.17794434 -241.75763672 47.72112305 -242.16088867 48.28076172 C-251.9382422 62.0657054 -260.00420498 78.19319667 -263.97485352 94.63476562 C-264.24120605 95.55443115 -264.24120605 95.55443115 -264.51293945 96.49267578 C-268.10689385 108.93818227 -268.40116666 121.40201907 -268.47485352 134.25976562 C-268.4852063 135.08144226 -268.49555908 135.9031189 -268.50622559 136.74969482 C-268.62651595 148.87695785 -267.14586449 159.93288663 -263.97485352 171.63476562 C-263.56734863 173.15553711 -263.56734863 173.15553711 -263.15161133 174.70703125 C-257.64307219 193.96171575 -248.40139692 210.47207929 -236.55444336 226.49462891 C-234.38457465 229.43451594 -232.24944469 232.39896437 -230.11279297 235.36303711 C-229.02047353 236.87802182 -227.92655851 238.39185737 -226.83105469 239.90454102 C-223.17424705 244.95493748 -219.56143597 250.0343083 -215.97485352 255.13476562 C-210.26134079 263.25674081 -204.45537649 271.30970448 -198.62915039 279.35107422 C-195.8456715 283.19355674 -193.06610752 287.03886533 -190.28735352 290.88476562 C-189.74344971 291.63749756 -189.1995459 292.39022949 -188.63916016 293.16577148 C-185.00124286 298.20403098 -181.38328084 303.25610017 -177.77612305 308.31640625 C-172.21211157 316.11538109 -166.5889912 323.87184681 -160.97485352 331.63476562 C-148.53011228 348.84266491 -148.53011228 348.84266491 -142.97485352 356.63476562 C-141.30900385 358.96868322 -139.64208079 361.30183197 -137.97485352 363.63476562 C-137.43231934 364.39450684 -136.88978516 365.15424805 -136.33081055 365.93701172 C-134.56933044 368.40093155 -132.80374479 370.86186491 -131.03735352 373.32226562 C-130.48112305 374.10150391 -129.92489258 374.88074219 -129.35180664 375.68359375 C-128.82651367 376.41384766 -128.3012207 377.14410156 -127.76000977 377.89648438 C-127.29473877 378.54576904 -126.82946777 379.19505371 -126.35009766 379.86401367 C-125.00095184 381.60116165 -123.56393955 383.11707288 -121.97485352 384.63476562 C-114.40436137 374.91871926 -107.07474392 365.03723655 -99.78930664 355.10644531 C-96.85679606 351.11172826 -93.91548691 347.12350475 -90.97485352 343.13476562 C-89.80814241 341.55146504 -88.64147579 339.96813167 -87.47485352 338.38476562 C-66.47485352 309.88476562 -66.47485352 309.88476562 -64.72460938 307.50952148 C-63.55864545 305.92708378 -62.39279248 304.34456431 -61.22705078 302.76196289 C-58.30053908 298.78924676 -55.37207818 294.81799569 -52.43969727 290.84960938 C-46.7006187 283.07876688 -40.99055733 275.28987866 -35.34985352 267.44726562 C-31.28517266 261.796129 -27.16782596 256.19136803 -22.97485352 250.63476562 C-17.01431053 242.73080334 -11.19293804 234.73175306 -5.43969727 226.67578125 C-4.14088385 224.86610123 -2.8268487 223.06907591 -1.50610352 221.27539062 C7.58823651 208.65859495 14.46573142 195.23992469 19.46264648 180.50976562 C19.78048096 179.58188232 20.09831543 178.65399902 20.42578125 177.69799805 C24.79351697 164.12736448 26.53946609 150.54547511 26.41625977 136.33251953 C26.40014425 134.13446073 26.41624912 131.93823923 26.43530273 129.74023438 C26.46619178 108.35922628 21.28554884 87.85141117 12.02514648 68.63476562 C11.72624512 68.00570312 11.42734375 67.37664062 11.11938477 66.72851562 C-5.88693216 31.40982606 -37.32971035 5.84804962 -73.96704102 -7.05273438 C-129.02054098 -25.55630446 -190.20762833 -9.42448133 -229.97485352 32.63476562 Z " fill="#2A2B2B" transform="translate(376.974853515625,71.365234375)"/>
<path d="M0 0 C0.83885742 0.00749268 1.67771484 0.01498535 2.54199219 0.02270508 C24.89635636 0.40969069 44.88733181 9.5440674 60.6875 25.25 C76.07117567 42.2903792 82.95102264 63.30457844 82.1328125 86.03125 C81.0011644 103.12609051 73.74450746 119.30980393 62.6875 132.25 C61.924375 133.260625 61.16125 134.27125 60.375 135.3125 C49.53763314 147.15799401 35.87730171 153.89841518 20.6875 158.25 C19.42292969 158.61738281 18.15835938 158.98476563 16.85546875 159.36328125 C-3.0031311 164.18786272 -24.24730168 158.59746946 -41.3125 148.25 C-44.49817214 146.09458778 -47.41422254 143.77313507 -50.3125 141.25 C-51.19228516 140.58291016 -51.19228516 140.58291016 -52.08984375 139.90234375 C-66.19731706 128.92986451 -75.25165229 109.77690647 -77.89453125 92.4296875 C-80.35606041 70.47931413 -76.26087582 49.89927482 -62.625 32.125 C-61.52967042 30.82583106 -60.4265771 29.5331286 -59.3125 28.25 C-58.549375 27.239375 -57.78625 26.22875 -57 25.1875 C-46.33252001 13.52769629 -32.49283154 6.07347503 -17.3125 2.25 C-16.05824219 1.89164063 -14.80398437 1.53328125 -13.51171875 1.1640625 C-8.99370359 0.04530565 -4.63651262 -0.05488385 0 0 Z " fill="#2B2B2C" transform="translate(254.3125,127.75)"/>
<path d="M0 0 C10.81689021 7.04763349 18.84403803 17.18164367 22.1875 29.8125 C24.55957051 44.22941743 22.09066004 58.23536593 13.75 70.3125 C6.39812028 79.54635261 -4.28447739 86.8294496 -16.07421875 89.1015625 C-31.44006565 90.59124963 -44.67757174 87.92279069 -56.91796875 78.19140625 C-65.97183473 69.84979599 -72.86473039 57.79730158 -73.5859375 45.296875 C-73.77166212 36.57904276 -73.25752761 29.24016366 -69.25 21.3125 C-68.82589844 20.46300781 -68.40179688 19.61351562 -67.96484375 18.73828125 C-61.22512831 6.47913311 -51.03210992 -1.34862915 -37.828125 -5.85546875 C-24.69620399 -8.90907047 -11.69903198 -6.46146536 0 0 Z " fill="#F3F3F3" transform="translate(281.25,166.6875)"/>
</svg>
