<?xml version="1.0" encoding="UTF-8"?>
<svg version="1.1" xmlns="http://www.w3.org/2000/svg" width="512" height="512">
<path d="M0 0 C33.91488019 31.02968177 55.74376145 73.48145955 59.02514648 119.63476562 C60.91796109 165.62979446 49.26396761 207.35091827 22.02514648 244.63476562 C21.48873535 245.37162598 20.95232422 246.10848633 20.3996582 246.86767578 C16.89848462 251.66700324 13.36655645 256.4429761 9.82348633 261.21142578 C6.87995875 265.17795507 3.95330349 269.15688422 1.02514648 273.13476562 C-0.14143687 274.71816034 -1.3081036 276.30149364 -2.47485352 277.88476562 C-3.05235352 278.66851562 -3.62985352 279.45226562 -4.22485352 280.25976562 C-9.47485352 287.38476562 -9.47485352 287.38476562 -11.22509766 289.76000977 C-12.39106158 291.34244747 -13.55691455 292.92496694 -14.72265625 294.50756836 C-17.64916795 298.48028449 -20.57762886 302.45153556 -23.51000977 306.41992188 C-29.20449951 314.1301602 -34.87368294 321.85640151 -40.47485352 329.63476562 C-47.81509573 339.82818428 -55.2793971 349.92877853 -62.74536133 360.03027344 C-64.51012927 362.41870316 -66.27404718 364.80775665 -68.03735352 367.19726562 C-68.61445068 367.9791626 -69.19154785 368.76105957 -69.78613281 369.56665039 C-73.24404044 374.26018368 -76.67009763 378.97511239 -80.0715332 383.7097168 C-82.69499055 387.3593907 -85.33350077 390.99803265 -87.97485352 394.63476562 C-88.43907715 395.27768555 -88.90330078 395.92060547 -89.3815918 396.58300781 C-96.5878199 406.5134461 -103.32754425 413.91372968 -115.41235352 417.32226562 C-125.10406736 418.50418195 -133.92307124 416.73404615 -142.06469727 411.16601562 C-149.6336007 405.09851022 -154.6958781 396.81388817 -160.0534668 388.85351562 C-163.98611154 383.02098215 -168.11929861 377.45683244 -172.45922852 371.91992188 C-175.89545752 367.48849342 -179.0825467 362.88124841 -182.29882812 358.28930664 C-186.02164756 352.97599524 -189.79411143 347.70148266 -193.59985352 342.44726562 C-197.81112233 336.63129087 -202.00477945 330.8037798 -206.17114258 324.95556641 C-209.54229654 320.22865165 -212.94501301 315.52495122 -216.34985352 310.82226562 C-220.59728333 304.9534516 -224.80725104 299.06052155 -228.97485352 293.13476562 C-235.75583763 283.49551461 -242.66433111 273.94959234 -249.58813477 264.41259766 C-252.8376038 259.93667148 -256.07352577 255.45141661 -259.2980957 250.95751953 C-261.01229 248.58290618 -262.74707455 246.22423956 -264.48266602 243.86523438 C-293.40545979 204.12817622 -306.71285097 156.46761821 -299.38305664 107.49609375 C-291.36491407 58.92396786 -265.09480651 16.15956874 -225.16186523 -12.67431641 C-200.05804834 -30.48796867 -170.75662142 -42.40248921 -139.97485352 -45.36523438 C-138.88172852 -45.47480469 -137.78860352 -45.584375 -136.66235352 -45.69726562 C-86.60148939 -50.12481847 -37.3488176 -33.47263382 0 0 Z " fill="#F04C3C" transform="translate(376.974853515625,71.365234375)"/>
<path d="M0 0 C33.91488019 31.02968177 55.74376145 73.48145955 59.02514648 119.63476562 C60.91796109 165.62979446 49.26396761 207.35091827 22.02514648 244.63476562 C21.48873535 245.37162598 20.95232422 246.10848633 20.3996582 246.86767578 C16.89848462 251.66700324 13.36655645 256.4429761 9.82348633 261.21142578 C6.87995875 265.17795507 3.95330349 269.15688422 1.02514648 273.13476562 C-0.14143687 274.71816034 -1.3081036 276.30149364 -2.47485352 277.88476562 C-3.05235352 278.66851562 -3.62985352 279.45226562 -4.22485352 280.25976562 C-9.47485352 287.38476562 -9.47485352 287.38476562 -11.22509766 289.76000977 C-12.39106158 291.34244747 -13.55691455 292.92496694 -14.72265625 294.50756836 C-17.64916795 298.48028449 -20.57762886 302.45153556 -23.51000977 306.41992188 C-29.20449951 314.1301602 -34.87368294 321.85640151 -40.47485352 329.63476562 C-47.81509573 339.82818428 -55.2793971 349.92877853 -62.74536133 360.03027344 C-64.51012927 362.41870316 -66.27404718 364.80775665 -68.03735352 367.19726562 C-68.61445068 367.9791626 -69.19154785 368.76105957 -69.78613281 369.56665039 C-73.24404044 374.26018368 -76.67009763 378.97511239 -80.0715332 383.7097168 C-82.69499055 387.3593907 -85.33350077 390.99803265 -87.97485352 394.63476562 C-88.43907715 395.27768555 -88.90330078 395.92060547 -89.3815918 396.58300781 C-96.5878199 406.5134461 -103.32754425 413.91372968 -115.41235352 417.32226562 C-125.10406736 418.50418195 -133.92307124 416.73404615 -142.06469727 411.16601562 C-149.6336007 405.09851022 -154.6958781 396.81388817 -160.0534668 388.85351562 C-163.98611154 383.02098215 -168.11929861 377.45683244 -172.45922852 371.91992188 C-175.89545752 367.48849342 -179.0825467 362.88124841 -182.29882812 358.28930664 C-186.02164756 352.97599524 -189.79411143 347.70148266 -193.59985352 342.44726562 C-197.81112233 336.63129087 -202.00477945 330.8037798 -206.17114258 324.95556641 C-209.54229654 320.22865165 -212.94501301 315.52495122 -216.34985352 310.82226562 C-220.59728333 304.9534516 -224.80725104 299.06052155 -228.97485352 293.13476562 C-235.75583763 283.49551461 -242.66433111 273.94959234 -249.58813477 264.41259766 C-252.8376038 259.93667148 -256.07352577 255.45141661 -259.2980957 250.95751953 C-261.01229 248.58290618 -262.74707455 246.22423956 -264.48266602 243.86523438 C-293.40545979 204.12817622 -306.71285097 156.46761821 -299.38305664 107.49609375 C-291.36491407 58.92396786 -265.09480651 16.15956874 -225.16186523 -12.67431641 C-200.05804834 -30.48796867 -170.75662142 -42.40248921 -139.97485352 -45.36523438 C-138.88172852 -45.47480469 -137.78860352 -45.584375 -136.66235352 -45.69726562 C-86.60148939 -50.12481847 -37.3488176 -33.47263382 0 0 Z M-191.97485352 3.63476562 C-193.56233398 4.48361328 -193.56233398 4.48361328 -195.18188477 5.34960938 C-213.37234223 15.48190875 -228.90039472 29.74935287 -240.97485352 46.63476562 C-241.36624512 47.17794434 -241.75763672 47.72112305 -242.16088867 48.28076172 C-251.9382422 62.0657054 -260.00420498 78.19319667 -263.97485352 94.63476562 C-264.24120605 95.55443115 -264.24120605 95.55443115 -264.51293945 96.49267578 C-268.10689385 108.93818227 -268.40116666 121.40201907 -268.47485352 134.25976562 C-268.4852063 135.08144226 -268.49555908 135.9031189 -268.50622559 136.74969482 C-268.62651595 148.87695785 -267.14586449 159.93288663 -263.97485352 171.63476562 C-263.56734863 173.15553711 -263.56734863 173.15553711 -263.15161133 174.70703125 C-257.64307219 193.96171575 -248.40139692 210.47207929 -236.55444336 226.49462891 C-234.38457465 229.43451594 -232.24944469 232.39896437 -230.11279297 235.36303711 C-229.02047353 236.87802182 -227.92655851 238.39185737 -226.83105469 239.90454102 C-223.17424705 244.95493748 -219.56143597 250.0343083 -215.97485352 255.13476562 C-210.26134079 263.25674081 -204.45537649 271.30970448 -198.62915039 279.35107422 C-195.8456715 283.19355674 -193.06610752 287.03886533 -190.28735352 290.88476562 C-189.74344971 291.63749756 -189.1995459 292.39022949 -188.63916016 293.16577148 C-185.00124286 298.20403098 -181.38328084 303.25610017 -177.77612305 308.31640625 C-174.42178833 313.01811691 -171.04499242 317.70338579 -167.66235352 322.38476562 C-167.11522705 323.14200928 -166.56810059 323.89925293 -166.00439453 324.67944336 C-163.23114644 328.51642526 -160.45566551 332.35177733 -157.67797852 336.18554688 C-151.90705298 344.15578169 -146.18041462 352.15364868 -140.52050781 360.203125 C-134.74742693 368.40126482 -128.86239154 376.51861961 -122.97485352 384.63476562 C-118.48962788 380.45134956 -114.99623212 375.78567086 -111.41235352 370.82226562 C-110.16298666 369.10826227 -108.91297649 367.39472767 -107.66235352 365.68164062 C-107.04102539 364.82892578 -106.41969727 363.97621094 -105.77954102 363.09765625 C-103.19026348 359.564021 -100.55297917 356.06758868 -97.91235352 352.57226562 C-93.12941685 346.22605926 -88.46673291 339.79906028 -83.83007812 333.34545898 C-79.78957319 327.73287635 -75.66122372 322.19296574 -71.49438477 316.67382812 C-67.7549466 311.70754017 -64.10201759 306.68350232 -60.47485352 301.63476562 C-55.89111888 295.25455542 -51.2278748 288.94351677 -46.49438477 282.67382812 C-42.75494478 277.70753776 -39.10211852 272.68343179 -35.47485352 267.63476562 C-31.38560453 261.94498034 -27.25346551 256.29374418 -23.03735352 250.69726562 C-16.28414685 241.72405737 -9.55412907 232.73672681 -2.97485352 223.63476562 C-2.49741699 222.97621582 -2.01998047 222.31766602 -1.52807617 221.63916016 C7.90828463 208.49260164 14.6494319 194.29973341 19.90014648 179.00976562 C20.17431396 178.22456543 20.44848145 177.43936523 20.73095703 176.63037109 C25.02761416 163.46427178 26.53571344 150.11257312 26.41625977 136.33251953 C26.40014425 134.13446073 26.41624912 131.93823923 26.43530273 129.74023438 C26.46619178 108.35922628 21.28554884 87.85141117 12.02514648 68.63476562 C11.72624512 68.00570312 11.42734375 67.37664062 11.11938477 66.72851562 C-5.88693216 31.40982606 -37.32971035 5.84804962 -73.96704102 -7.05273438 C-80.53872124 -9.26148669 -87.19634688 -10.92799749 -93.97485352 -12.36523438 C-95.57780273 -12.70554688 -95.57780273 -12.70554688 -97.21313477 -13.05273438 C-129.80888027 -18.78385446 -163.21113314 -12.03671898 -191.97485352 3.63476562 Z " fill="#2B2B2B" transform="translate(376.974853515625,71.365234375)"/>
<path d="M0 0 C1.68125431 1.31489143 3.34929142 2.64696018 5 4 C5.70382812 4.54140625 6.40765625 5.0828125 7.1328125 5.640625 C22.01981741 17.66698975 31.68695754 37.16353119 34 56 C35.95359487 76.84376061 31.24092983 97.19038299 18.375 114 C17.25744803 115.33958216 16.13328335 116.67370002 15 118 C14.236875 119.010625 13.47375 120.02125 12.6875 121.0625 C-0.60308783 135.58942159 -20.88072369 145.36458774 -40.65625 146.3359375 C-62.27023199 146.74358128 -81.45120183 141.40678254 -98 127 C-98.87978516 126.33291016 -98.87978516 126.33291016 -99.77734375 125.65234375 C-114.72838619 114.02375519 -123.16921606 94.34767369 -126 76 C-128.15202841 54.9847045 -123.26961627 34.76451619 -110.3125 17.875 C-109.21717042 16.57583106 -108.1140771 15.2831286 -107 14 C-106.236875 12.989375 -105.47375 11.97875 -104.6875 10.9375 C-78.19467794 -18.01977063 -31.880205 -22.64593873 0 0 Z " fill="#2C2B2B" transform="translate(302,142)"/>
<path d="M0 0 C10.81689021 7.04763349 18.84403803 17.18164367 22.1875 29.8125 C24.55957051 44.22941743 22.09066004 58.23536593 13.75 70.3125 C6.39812028 79.54635261 -4.28447739 86.8294496 -16.07421875 89.1015625 C-31.44006565 90.59124963 -44.67757174 87.92279069 -56.91796875 78.19140625 C-65.97183473 69.84979599 -72.86473039 57.79730158 -73.5859375 45.296875 C-73.77166212 36.57904276 -73.25752761 29.24016366 -69.25 21.3125 C-68.82589844 20.46300781 -68.40179688 19.61351562 -67.96484375 18.73828125 C-61.22512831 6.47913311 -51.03210992 -1.34862915 -37.828125 -5.85546875 C-24.69620399 -8.90907047 -11.69903198 -6.46146536 0 0 Z " fill="#F3F3F3" transform="translate(281.25,166.6875)"/>
</svg>
