<?xml version="1.0" encoding="UTF-8"?>
<svg version="1.1" xmlns="http://www.w3.org/2000/svg" width="512" height="512">
<path d="M0 0 C33.91488019 31.02968177 55.74376145 73.48145955 59.02514648 119.63476562 C60.91796109 165.62979446 49.26396761 207.35091827 22.02514648 244.63476562 C21.48873535 245.37162598 20.95232422 246.10848633 20.3996582 246.86767578 C16.89848462 251.66700324 13.36655645 256.4429761 9.82348633 261.21142578 C6.87995875 265.17795507 3.95330349 269.15688422 1.02514648 273.13476562 C-0.14143687 274.71816034 -1.3081036 276.30149364 -2.47485352 277.88476562 C-3.05235352 278.66851562 -3.62985352 279.45226562 -4.22485352 280.25976562 C-9.47485352 287.38476562 -9.47485352 287.38476562 -11.22509766 289.76000977 C-12.39106158 291.34244747 -13.55691455 292.92496694 -14.72265625 294.50756836 C-17.64916795 298.48028449 -20.57762886 302.45153556 -23.51000977 306.41992188 C-29.20449951 314.1301602 -34.87368294 321.85640151 -40.47485352 329.63476562 C-47.81509573 339.82818428 -55.2793971 349.92877853 -62.74536133 360.03027344 C-64.51012927 362.41870316 -66.27404718 364.80775665 -68.03735352 367.19726562 C-68.61445068 367.9791626 -69.19154785 368.76105957 -69.78613281 369.56665039 C-73.24404044 374.26018368 -76.67009763 378.97511239 -80.0715332 383.7097168 C-82.69499055 387.3593907 -85.33350077 390.99803265 -87.97485352 394.63476562 C-88.43907715 395.27768555 -88.90330078 395.92060547 -89.3815918 396.58300781 C-96.5878199 406.5134461 -103.32754425 413.91372968 -115.41235352 417.32226562 C-125.10406736 418.50418195 -133.92307124 416.73404615 -142.06469727 411.16601562 C-149.6336007 405.09851022 -154.6958781 396.81388817 -160.0534668 388.85351562 C-163.98611154 383.02098215 -168.11929861 377.45683244 -172.45922852 371.91992188 C-175.89545752 367.48849342 -179.0825467 362.88124841 -182.29882812 358.28930664 C-186.02164756 352.97599524 -189.79411143 347.70148266 -193.59985352 342.44726562 C-197.81112233 336.63129087 -202.00477945 330.8037798 -206.17114258 324.95556641 C-209.54229654 320.22865165 -212.94501301 315.52495122 -216.34985352 310.82226562 C-220.59728333 304.9534516 -224.80725104 299.06052155 -228.97485352 293.13476562 C-235.75583763 283.49551461 -242.66433111 273.94959234 -249.58813477 264.41259766 C-252.8376038 259.93667148 -256.07352577 255.45141661 -259.2980957 250.95751953 C-261.01229 248.58290618 -262.74707455 246.22423956 -264.48266602 243.86523438 C-293.40545979 204.12817622 -306.71285097 156.46761821 -299.38305664 107.49609375 C-291.36491407 58.92396786 -265.09480651 16.15956874 -225.16186523 -12.67431641 C-200.05804834 -30.48796867 -170.75662142 -42.40248921 -139.97485352 -45.36523438 C-138.88172852 -45.47480469 -137.78860352 -45.584375 -136.66235352 -45.69726562 C-86.60148939 -50.12481847 -37.3488176 -33.47263382 0 0 Z " fill="#00C752" transform="translate(376.974853515625,71.365234375)"/>
<path d="M0 0 C33.91488019 31.02968177 55.74376145 73.48145955 59.02514648 119.63476562 C60.91796109 165.62979446 49.26396761 207.35091827 22.02514648 244.63476562 C21.48873535 245.37162598 20.95232422 246.10848633 20.3996582 246.86767578 C16.89848462 251.66700324 13.36655645 256.4429761 9.82348633 261.21142578 C6.87995875 265.17795507 3.95330349 269.15688422 1.02514648 273.13476562 C-0.14143687 274.71816034 -1.3081036 276.30149364 -2.47485352 277.88476562 C-3.05235352 278.66851562 -3.62985352 279.45226562 -4.22485352 280.25976562 C-9.47485352 287.38476562 -9.47485352 287.38476562 -11.22509766 289.76000977 C-12.39106158 291.34244747 -13.55691455 292.92496694 -14.72265625 294.50756836 C-17.64916795 298.48028449 -20.57762886 302.45153556 -23.51000977 306.41992188 C-29.20449951 314.1301602 -34.87368294 321.85640151 -40.47485352 329.63476562 C-47.81509573 339.82818428 -55.2793971 349.92877853 -62.74536133 360.03027344 C-64.51012927 362.41870316 -66.27404718 364.80775665 -68.03735352 367.19726562 C-68.61445068 367.9791626 -69.19154785 368.76105957 -69.78613281 369.56665039 C-73.24404044 374.26018368 -76.67009763 378.97511239 -80.0715332 383.7097168 C-82.69499055 387.3593907 -85.33350077 390.99803265 -87.97485352 394.63476562 C-88.43907715 395.27768555 -88.90330078 395.92060547 -89.3815918 396.58300781 C-96.5878199 406.5134461 -103.32754425 413.91372968 -115.41235352 417.32226562 C-125.10406736 418.50418195 -133.92307124 416.73404615 -142.06469727 411.16601562 C-149.6336007 405.09851022 -154.6958781 396.81388817 -160.0534668 388.85351562 C-163.98611154 383.02098215 -168.11929861 377.45683244 -172.45922852 371.91992188 C-175.89545752 367.48849342 -179.0825467 362.88124841 -182.29882812 358.28930664 C-186.02164756 352.97599524 -189.79411143 347.70148266 -193.59985352 342.44726562 C-197.81112233 336.63129087 -202.00477945 330.8037798 -206.17114258 324.95556641 C-209.54229654 320.22865165 -212.94501301 315.52495122 -216.34985352 310.82226562 C-220.59728333 304.9534516 -224.80725104 299.06052155 -228.97485352 293.13476562 C-235.75583763 283.49551461 -242.66433111 273.94959234 -249.58813477 264.41259766 C-252.8376038 259.93667148 -256.07352577 255.45141661 -259.2980957 250.95751953 C-261.01229 248.58290618 -262.74707455 246.22423956 -264.48266602 243.86523438 C-293.40545979 204.12817622 -306.71285097 156.46761821 -299.38305664 107.49609375 C-291.36491407 58.92396786 -265.09480651 16.15956874 -225.16186523 -12.67431641 C-200.05804834 -30.48796867 -170.75662142 -42.40248921 -139.97485352 -45.36523438 C-138.88172852 -45.47480469 -137.78860352 -45.584375 -136.66235352 -45.69726562 C-86.60148939 -50.12481847 -37.3488176 -33.47263382 0 0 Z M-191.97485352 3.63476562 C-193.56233398 4.48361328 -193.56233398 4.48361328 -195.18188477 5.34960938 C-213.37234223 15.48190875 -228.90039472 29.74935287 -240.97485352 46.63476562 C-241.36624512 47.17794434 -241.75763672 47.72112305 -242.16088867 48.28076172 C-251.9382422 62.0657054 -260.00420498 78.19319667 -263.97485352 94.63476562 C-264.24120605 95.55443115 -264.24120605 95.55443115 -264.51293945 96.49267578 C-268.10689385 108.93818227 -268.40116666 121.40201907 -268.47485352 134.25976562 C-268.4852063 135.08144226 -268.49555908 135.9031189 -268.50622559 136.74969482 C-268.62651595 148.87695785 -267.14586449 159.93288663 -263.97485352 171.63476562 C-263.56734863 173.15553711 -263.56734863 173.15553711 -263.15161133 174.70703125 C-257.64307219 193.96171575 -248.40139692 210.47207929 -236.55444336 226.49462891 C-234.38457465 229.43451594 -232.24944469 232.39896437 -230.11279297 235.36303711 C-229.02047353 236.87802182 -227.92655851 238.39185737 -226.83105469 239.90454102 C-223.17424705 244.95493748 -219.56143597 250.0343083 -215.97485352 255.13476562 C-210.26134079 263.25674081 -204.45537649 271.30970448 -198.62915039 279.35107422 C-195.8456715 283.19355674 -193.06610752 287.03886533 -190.28735352 290.88476562 C-189.74344971 291.63749756 -189.1995459 292.39022949 -188.63916016 293.16577148 C-185.00124286 298.20403098 -181.38328084 303.25610017 -177.77612305 308.31640625 C-172.21211157 316.11538109 -166.5889912 323.87184681 -160.97485352 331.63476562 C-148.53011228 348.84266491 -148.53011228 348.84266491 -142.97485352 356.63476562 C-141.30900385 358.96868322 -139.64208079 361.30183197 -137.97485352 363.63476562 C-137.43231934 364.39450684 -136.88978516 365.15424805 -136.33081055 365.93701172 C-134.56933044 368.40093155 -132.80374479 370.86186491 -131.03735352 373.32226562 C-130.48112305 374.10150391 -129.92489258 374.88074219 -129.35180664 375.68359375 C-128.82651367 376.41384766 -128.3012207 377.14410156 -127.76000977 377.89648438 C-127.29473877 378.54576904 -126.82946777 379.19505371 -126.35009766 379.86401367 C-125.00095184 381.60116165 -123.56393955 383.11707288 -121.97485352 384.63476562 C-114.40436137 374.91871926 -107.07474392 365.03723655 -99.78930664 355.10644531 C-96.85679606 351.11172826 -93.91548691 347.12350475 -90.97485352 343.13476562 C-89.80814241 341.55146504 -88.64147579 339.96813167 -87.47485352 338.38476562 C-66.47485352 309.88476562 -66.47485352 309.88476562 -64.72460938 307.50952148 C-63.55864545 305.92708378 -62.39279248 304.34456431 -61.22705078 302.76196289 C-58.30053908 298.78924676 -55.37207818 294.81799569 -52.43969727 290.84960938 C-46.7006187 283.07876688 -40.99055733 275.28987866 -35.34985352 267.44726562 C-31.28517266 261.796129 -27.16782596 256.19136803 -22.97485352 250.63476562 C-17.01629979 242.73344119 -11.19592686 234.73749811 -5.4440918 226.68457031 C-4.12956796 224.85061516 -2.80235776 223.02678067 -1.47094727 221.20507812 C17.24785087 195.09642403 26.50179547 165.40601484 26.33764648 133.32226562 C26.33541077 132.23634125 26.33541077 132.23634125 26.33312988 131.128479 C26.29322717 120.33658121 25.69932443 110.13552472 23.02514648 99.63476562 C22.60749023 97.76498047 22.60749023 97.76498047 22.18139648 95.85742188 C19.88023918 86.24612262 16.29810732 77.50176412 12.02514648 68.63476562 C11.72624512 68.00570312 11.42734375 67.37664062 11.11938477 66.72851562 C-5.89055634 31.40229937 -37.32609049 5.86869092 -73.95922852 -7.05273438 C-113.36230957 -20.30264628 -155.64728372 -16.15776968 -191.97485352 3.63476562 Z " fill="#2A2B2B" transform="translate(376.974853515625,71.365234375)"/>
<path d="M0 0 C2.7388437 1.94236241 5.36461047 3.96818523 7.97265625 6.08203125 C8.6790625 6.62472656 9.38546875 7.16742188 10.11328125 7.7265625 C24.99235969 19.76455707 34.65916546 39.24191139 36.97265625 58.08203125 C38.92625112 78.92579186 34.21358608 99.27241424 21.34765625 116.08203125 C20.23010428 117.42161341 19.1059396 118.75573127 17.97265625 120.08203125 C17.20953125 121.09265625 16.44640625 122.10328125 15.66015625 123.14453125 C2.36956842 137.67145284 -17.90806744 147.44661899 -37.68359375 148.41796875 C-59.29757574 148.82561253 -78.47854558 143.48881379 -95.02734375 129.08203125 C-95.90712891 128.41494141 -95.90712891 128.41494141 -96.8046875 127.734375 C-112.43211647 115.57970802 -120.46362308 95.20211626 -123.02734375 76.08203125 C-124.53892096 54.67851787 -119.66004564 34.57000613 -105.59765625 17.890625 C-105.07945312 17.29378906 -104.56125 16.69695312 -104.02734375 16.08203125 C-103.26421875 15.07140625 -102.50109375 14.06078125 -101.71484375 13.01953125 C-91.04736376 1.35972754 -77.20767529 -6.09449372 -62.02734375 -9.91796875 C-60.7640625 -10.27375 -59.50078125 -10.62953125 -58.19921875 -10.99609375 C-39.31104007 -15.65646365 -16.16767521 -10.24300455 0 0 Z " fill="#2B2C2B" transform="translate(299.02734375,139.91796875)"/>
<path d="M0 0 C10.81689021 7.04763349 18.84403803 17.18164367 22.1875 29.8125 C24.55957051 44.22941743 22.09066004 58.23536593 13.75 70.3125 C6.39812028 79.54635261 -4.28447739 86.8294496 -16.07421875 89.1015625 C-31.44006565 90.59124963 -44.67757174 87.92279069 -56.91796875 78.19140625 C-65.97183473 69.84979599 -72.86473039 57.79730158 -73.5859375 45.296875 C-73.77166212 36.57904276 -73.25752761 29.24016366 -69.25 21.3125 C-68.82589844 20.46300781 -68.40179688 19.61351562 -67.96484375 18.73828125 C-61.22512831 6.47913311 -51.03210992 -1.34862915 -37.828125 -5.85546875 C-24.69620399 -8.90907047 -11.69903198 -6.46146536 0 0 Z " fill="#F3F3F3" transform="translate(281.25,166.6875)"/>
</svg>
