<?xml version="1.0" encoding="UTF-8"?>
<svg version="1.1" xmlns="http://www.w3.org/2000/svg" width="512" height="512">
<path d="M0 0 C1.1088707 -0.01058945 1.1088707 -0.01058945 2.24014282 -0.02139282 C32.97641168 -0.24840581 32.97641168 -0.24840581 45.9765625 3.203125 C47.16427246 3.50911621 47.16427246 3.50911621 48.37597656 3.82128906 C74.61487163 10.73579651 97.8146255 22.75872863 117.80078125 41.21484375 C119.54657624 42.81019321 121.30944352 44.30248232 123.1640625 45.765625 C144.63550246 64.3742063 158.87961802 93.1600313 165.9765625 120.203125 C166.18829102 120.99654297 166.40001953 121.78996094 166.61816406 122.60742188 C176.69553923 162.24616225 169.39680552 206.94377186 148.89257812 242.05957031 C146.73868129 245.55318302 144.40624515 248.89733037 141.9765625 252.203125 C141.37199219 253.02941406 140.76742188 253.85570312 140.14453125 254.70703125 C138.77302897 256.553902 137.38735053 258.38620102 135.9765625 260.203125 C137.42117912 263.51477039 139.21654279 265.68663573 141.7722168 268.22583008 C142.56300629 269.01647858 143.35379578 269.80712708 144.16854858 270.62173462 C145.03718536 271.48003876 145.90582214 272.3383429 146.80078125 273.22265625 C148.20362188 274.62101393 149.60646225 276.01937187 151.0092926 277.41773987 C152.51608672 278.91779713 154.02533779 280.41534197 155.53530884 281.91220093 C158.68356097 285.03339215 161.82415623 288.16221191 164.96362305 291.29223633 C171.62871033 297.93512966 178.30220147 304.56955137 184.9765625 311.203125 C192.18212421 318.36465312 199.38623743 325.52760176 206.5806284 332.70035458 C209.70165744 335.81141908 212.82749869 338.91754139 215.95710754 342.01997375 C217.43424442 343.48578415 218.90907757 344.95386586 220.38290405 346.42300415 C222.17964904 348.21400741 223.97999917 350.00140401 225.78457642 351.78451538 C226.57536591 352.57516388 227.3661554 353.36581238 228.1809082 354.18041992 C228.8696553 354.8647258 229.5584024 355.54903168 230.26802063 356.2540741 C234.39632427 360.96351323 234.40744404 365.20721078 234.2890625 371.2890625 C233.72054094 376.59052601 231.19790466 379.04284995 227.4765625 382.578125 C222.41877764 384.92638226 217.45970457 385.17409807 211.9765625 384.203125 C205.98881809 380.83535627 201.47302398 375.96694706 196.66650391 371.12011719 C195.74879211 370.20269745 194.83108032 369.28527771 193.88555908 368.34005737 C191.38149718 365.83656701 188.88363044 363.32697819 186.38686419 360.81621456 C183.7719543 358.18876413 181.15134288 355.56701278 178.53134155 352.94464111 C173.57636452 347.98345906 168.62650592 343.01720291 163.67848432 338.0490849 C158.04275709 332.39096819 152.40131934 326.73855983 146.75940442 321.08661413 C135.15877621 309.46510608 123.5653088 297.83648177 111.9765625 286.203125 C108.83552707 287.71616665 106.02598895 289.49187697 103.15722656 291.47729492 C84.2781081 304.49678108 63.56761844 313.82791106 40.9765625 318.203125 C40.06737061 318.37972656 39.15817871 318.55632812 38.22143555 318.73828125 C28.9752082 320.35296506 19.89599331 320.60460272 10.5390625 320.578125 C9.74665161 320.5769165 8.95424072 320.57570801 8.13781738 320.57446289 C-4.93102207 320.52053823 -17.36403952 319.69252913 -30.0234375 316.203125 C-31.45937256 315.80843018 -31.45937256 315.80843018 -32.92431641 315.40576172 C-57.59752772 308.36822106 -79.18686065 296.61769335 -97.953125 279.12109375 C-99.65925404 277.54051005 -101.3862674 276.07838862 -103.2109375 274.640625 C-106.88924967 271.45275445 -109.93823278 267.96035451 -113.0234375 264.203125 C-113.78785156 263.27628906 -114.55226562 262.34945313 -115.33984375 261.39453125 C-130.82474884 242.18723419 -140.9637717 220.02896427 -147.0234375 196.203125 C-147.29244873 195.18605469 -147.29244873 195.18605469 -147.56689453 194.1484375 C-152.92358351 172.95573751 -152.62486047 145.30081971 -147.0234375 124.203125 C-146.71744629 123.01541504 -146.71744629 123.01541504 -146.40527344 121.80371094 C-139.49076599 95.56481587 -127.46783387 72.365062 -109.01171875 52.37890625 C-107.41636929 50.63311126 -105.92408018 48.87024398 -104.4609375 47.015625 C-80.00630178 18.79873763 -36.94917535 0.23599172 0 0 Z M-83.20507812 72.89672852 C-98.46296913 88.7743326 -108.08572493 108.14904605 -114.0234375 129.203125 C-114.36503906 130.40453125 -114.70664063 131.6059375 -115.05859375 132.84375 C-122.38748916 164.34095631 -116.00659393 199.01596588 -99.3828125 226.5078125 C-80.52394297 256.50491058 -51.3608468 277.2090726 -16.890625 285.203125 C16.29414564 292.27694398 50.99921209 285.7508876 79.5625 267.5 C107.01213935 249.32203584 125.12296954 222.59640027 133.9765625 191.203125 C134.31816406 190.00171875 134.65976562 188.8003125 135.01171875 187.5625 C142.34061416 156.06529369 135.95971893 121.39028412 119.3359375 93.8984375 C100.35103852 63.70087578 71.50365058 43.78591398 37.1015625 35.203125 C-7.54095891 25.36663723 -51.5064049 41.01367317 -83.20507812 72.89672852 Z " fill="#323232" transform="translate(214.0234375,63.796875)"/>
</svg>
