<svg xmlns="http://www.w3.org/2000/svg" width="40" height="40" viewBox="0 0 48 48" fill="none">
  <path
    d="M24 2C14.6112 2 7 9.46939 7 18.6818C7 27.041 11.5714 32.7529 14.9778 36.9552L22.4454 46.1828C23.2468 47.1738 24.7532 47.1738 25.5546 46.1828L33.0222 36.9552C36.4286 32.7529 41 27.041 41 18.6818C41 9.46939 33.3888 2 24 2Z"
    fill="#D98B2F"
  />
  <path
    d="M24 34C14.522 34 6.84 26.3743 6.84 16.9697C6.84 7.56507 14.522 -0.060606 24 -0.060606C33.478 -0.060606 41.16 7.56507 41.16 16.9697C41.16 26.3743 33.478 34 24 34Z"
    fill="#F1B369"
    opacity="0.55"
  />
  <circle cx="24" cy="18.6" r="8.2" fill="#FFF6E9" />
  <circle cx="24" cy="18.6" r="3.8" fill="#D98B2F" />
</svg>
