<svg xmlns="http://www.w3.org/2000/svg" viewBox="0 0 1200 1200" fill="none">
  <defs>
    <linearGradient id="bg" x1="80" y1="30" x2="1110" y2="1170" gradientUnits="userSpaceOnUse"><stop stop-color="#F9FCFF"/><stop offset="0.55" stop-color="#EEF6FF"/><stop offset="1" stop-color="#D7EAFF"/></linearGradient>
    <linearGradient id="brand" x1="92" y1="76" x2="300" y2="316" gradientUnits="userSpaceOnUse"><stop stop-color="#45B8FF"/><stop offset="0.38" stop-color="#3182F6"/><stop offset="1" stop-color="#1D4ED8"/></linearGradient>
    <filter id="shadow" x="-20%" y="-20%" width="140%" height="160%"><feDropShadow dx="0" dy="22" stdDeviation="26" flood-color="#174884" flood-opacity="0.14"/></filter>
  </defs>
  <rect width="1200" height="1200" rx="70" fill="url(#bg)"/>
  <circle cx="1085" cy="75" r="270" fill="#4BC2FF" fill-opacity="0.11"/>
  <g transform="translate(88 80)">
    <rect width="220" height="220" rx="60" fill="url(#brand)"/>
    <path fill-rule="evenodd" clip-rule="evenodd" d="M110 35c-35.2 0-63.8 28.6-63.8 63.8 0 40.5 37.5 74.9 63.8 98.2 26.3-23.3 63.8-57.7 63.8-98.2C173.8 63.6 145.2 35 110 35Zm0 26.4c-20.8 0-37.8 17-37.8 37.8s17 37.8 37.8 37.8 37.8-17 37.8-37.8-17-37.8-37.8-37.8Z" fill="#fff"/>
    <path d="m110 73 6.3 14 14 6.3-14 6.3-6.3 14-6.3-14-14-6.3 14-6.3 6.3-14Z" fill="#fff"/>
    <path d="M40 188c31-23 76-29 128-15-32 1-61 7-84 19-10 5-18 10-23 16" stroke="#fff" stroke-width="13" stroke-linecap="round"/>
  </g>
  <text x="350" y="166" fill="#111827" font-family="Pretendard, Malgun Gothic, sans-serif" font-size="68" font-weight="800" letter-spacing="-2">문화산책</text>
  <text x="352" y="229" fill="#52708F" font-family="Pretendard, Malgun Gothic, sans-serif" font-size="30" font-weight="650">전국 문화행사 지도</text>
  <g transform="translate(86 356)" filter="url(#shadow)">
    <rect width="1028" height="690" rx="52" fill="#F7FBFF" stroke="#fff" stroke-width="3"/>
    <text x="54" y="82" fill="#172033" font-family="Pretendard, Malgun Gothic, sans-serif" font-size="42" font-weight="800">오늘 어디에서 문화를 만나볼까요?</text>
    <text x="54" y="126" fill="#6A7C91" font-family="Pretendard, Malgun Gothic, sans-serif" font-size="22" font-weight="600">축제 · 공연 · 전시 · 체험을 지도와 함께 둘러보세요</text>
    <rect x="54" y="168" width="920" height="356" rx="36" fill="#DFEDFF"/>
    <path d="M112 242c112-44 226-36 331 18 102 53 216 58 469 4M112 359c142-63 283-56 406 3 107 51 197 48 394 8M151 468c124-48 227-48 331-1 99 44 192 48 366 9" stroke="#A8CBEF" stroke-width="3" stroke-dasharray="9 12"/>
    <g transform="translate(190 226)"><path d="M22 0C10 0 0 10 0 22c0 13 13 26 22 34 9-8 22-21 22-34C44 10 34 0 22 0Z" fill="#3182F6"/><circle cx="22" cy="22" r="9" fill="#fff"/><circle cx="22" cy="22" r="3.5" fill="#3182F6"/></g>
    <g transform="translate(454 310)"><path d="M26 0C12 0 0 12 0 26c0 16 16 31 26 40 10-9 26-24 26-40C52 12 40 0 26 0Z" fill="#1F6FF0"/><circle cx="26" cy="26" r="10.5" fill="#fff"/><path d="m26 20 2 4.8 4.8 2-4.8 2-2 4.8-2-4.8-4.8-2 4.8-2 2-4.8Z" fill="#3182F6"/></g>
    <g transform="translate(738 250)"><path d="M22 0C10 0 0 10 0 22c0 13 13 26 22 34 9-8 22-21 22-34C44 10 34 0 22 0Z" fill="#3182F6"/><circle cx="22" cy="22" r="9" fill="#fff"/><circle cx="22" cy="22" r="3.5" fill="#3182F6"/></g>
    <g transform="translate(842 398)"><path d="M22 0C10 0 0 10 0 22c0 13 13 26 22 34 9-8 22-21 22-34C44 10 34 0 22 0Z" fill="#3182F6"/><circle cx="22" cy="22" r="9" fill="#fff"/><circle cx="22" cy="22" r="3.5" fill="#3182F6"/></g>
    <g transform="translate(54 552)">
      <rect width="278" height="98" rx="26" fill="#173E98"/><path d="M24 78c59-52 109-59 215-29" stroke="#BEE8FF" stroke-width="11" stroke-linecap="round"/><circle cx="224" cy="27" r="18" fill="#72C9FF"/>
      <rect x="305" width="278" height="98" rx="26" fill="#E8F2FF"/><rect x="330" y="20" width="92" height="58" rx="10" fill="#3182F6"/><circle cx="375" cy="46" r="22" fill="#E9F5FF"/><path d="M330 61c37-31 70-31 92-18v35h-92V61Z" fill="#1647AD"/>
      <rect x="610" width="278" height="98" rx="26" fill="#2C6BE4"/><path d="M633 71c55-42 117-53 224-16" stroke="#D7F3FF" stroke-width="12" stroke-linecap="round"/><g fill="#fff"><circle cx="668" cy="28" r="6"/><circle cx="713" cy="21" r="5"/><circle cx="761" cy="30" r="6"/><circle cx="807" cy="20" r="5"/></g>
    </g>
  </g>
</svg>
